999
DXF file: rob-ceve-p23_V2.dxf
999
Pro/ENGINEER 2016390 by Parametric Technology Corporation
  0
SECTION
  2
HEADER
  9
$EXTMAX
 10
841.0
 20
594.0
 30
0.0
  9
$EXTMIN
 10
0.0
 20
0.0
 30
0.0
  9
$LIMMIN
 10
0.0
 20
0.0
  9
$LIMMAX
 10
841.0
 20
594.0
  9
$VIEWCTR
 10
420.5
 20
297.0
  9
$VIEWSIZE
 40
594.0
  9
$CLAYER
  8
0
  9
$LTSCALE
 40
46.255
  9
$CELTYPE
  6
BYLAYER
  9
$DIMSCALE
 40
1.0
  9
$DIMASZ
 40
2.0
  9
$DIMEXO
 40
0.5
  9
$DIMDLI
 40
31.958
  9
$DIMEXE
 40
2.0
  9
$DIMCEN
 40
7.569
  9
$DIMLFAC
 40
1.0
  9
$DIMBLK
  1
_FILLED
  9
$DIMALT
 70
0
  9
$DIMALTF
 40
0.0393700787
  9
$DIMTXT
 40
2.5
  9
$AUNITS
 70
0
  9
$PDMODE
 70
3
  9
$PDSIZE
 40
0.3125
  9
$TILEMODE
 70
1
  0
ENDSEC
  0
SECTION
  2
TABLES
  0
TABLE
  2
LTYPE
 70
6
  0
LTYPE
  2
BYBLOCK
 70
0
  3

 72
65
 73
0
 40
0.0
  0
LTYPE
  2
BYLAYER
 70
0
  3

 72
65
 73
0
 40
0.0
  0
LTYPE
  2
CONTINUOUS
 70
64
  3
Solid line
 72
65
 73
0
 40
0.0
  0
LTYPE
  2
CENTER
 70
64
  3
____ _ ____ _ ____ _ ____ _ ____ _ ____ _ ____
 72
65
 73
4
 40
0.6
 49
0.375
 49
-0.075
 49
0.075
 49
-0.075
  0
LTYPE
  2
HIDDEN
 70
64
  3
- - - - - - - - - - - - - - - - - - - -
 72
65
 73
2
 40
0.2
 49
0.1
 49
-0.1
  0
LTYPE
  2
PHANTOM
 70
64
  3
_____ _ _ _____ _ _ _____ _ _ _____
 72
65
 73
6
 40
0.8
 49
0.45
 49
-0.05
 49
0.1
 49
-0.05
 49
0.1
 49
-0.05
  0
LTYPE
  2
DOT
 70
64
  3
. . . . . . . . . . . . . . . . . . . .
 72
65
 73
2
 40
0.2
 49
0.1
 49
-0.1
  0
LTYPE
  2
DASHED
 70
64
  3
- - - - - - - - - - - - - - - - - - - -
 72
65
 73
2
 40
0.2
 49
0.1
 49
-0.1
  0
ENDTAB
  0
TABLE
  2
LAYER
 70
36
  0
LAYER
  2
0
 70
0
 62
7
  6
CONTINUOUS
  0
LAYER
  2
DEFAULT_1
 70
0
 62
7
  6
CENTER
  0
LAYER
  2
DEFAULT_2
 70
0
 62
8
  6
HIDDEN
  0
LAYER
  2
DEFAULT_3
 70
0
 62
7
  6
PHANTOM
  0
LAYER
  2
AXES
 70
0
 62
7
  6
CONTINUOUS
  0
LAYER
  2
COSMETIC
 70
0
 62
7
  6
CONTINUOUS
  0
LAYER
  2
COURBES
 70
0
 62
7
  6
CONTINUOUS
  0
LAYER
  2
FILETAGES
 70
0
 62
7
  6
CONTINUOUS
  0
LAYER
  2
PLANS
 70
0
 62
7
  6
CONTINUOUS
  0
LAYER
  2
PLANS_BASE_PRT
 70
0
 62
7
  6
CONTINUOUS
  0
LAYER
  2
PLANS_COUPES
 70
0
 62
7
  6
CONTINUOUS
  0
LAYER
  2
POINTS
 70
0
 62
7
  6
CONTINUOUS
  0
LAYER
  2
REPERES
 70
0
 62
7
  6
CONTINUOUS
  0
LAYER
  2
SOLIDE
 70
0
 62
7
  6
CONTINUOUS
  0
LAYER
  2
SURFACES
 70
0
 62
7
  6
CONTINUOUS
  0
ENDTAB
  0
TABLE
  2
STYLE
 70
1
  0
STYLE
  2
STANDARD
 70
0
 40
0.0
 41
0.8
 50
0.0
 71
0
 42
0.2
  3
txt
  4

  0
STYLE
  2
TEXTSTYLE_1
 70
0
 40
0.0
 41
0.8
 50
0.0
 71
0
 42
0.2
  3
gdt
  4

  0
ENDTAB
  0
ENDSEC
  0
SECTION
  2
BLOCKS
  0
ENDSEC
  0
SECTION
  2
ENTITIES
  0
LINE
  8
0
 62
7
  6
CONTINUOUS
 10
0.0
 20
0.0
 11
0.0
 21
594.0
  0
LINE
  8
0
 62
7
  6
CONTINUOUS
 10
0.0
 20
0.0
 11
841.0
 21
0.0
  0
LINE
  8
0
 62
7
  6
CONTINUOUS
 10
0.0
 20
594.0
 11
841.0
 21
594.0
  0
LINE
  8
0
 62
7
  6
CONTINUOUS
 10
841.0
 20
0.0
 11
841.0
 21
594.0
  0
LINE
  8
0
 62
7
  6
CONTINUOUS
 10
181.9434879032
 20
452.8734072581
 11
181.9434879032
 21
143.8734072581
  0
LINE
  8
AXES
 62
7
  6
CONTINUOUS
 10
216.3934879032
 20
165.2799336269
 11
216.3934879032
 21
174.4668808892
  0
LINE
  8
0
 62
7
  6
CONTINUOUS
 10
181.9434879032
 20
143.8734072581
 11
540.9434879032
 21
143.8734072581
  0
LINE
  8
AXES
 62
7
  6
CONTINUOUS
 10
236.4934879032
 20
174.4668808892
 11
236.4934879032
 21
165.2799336269
  0
LINE
  8
0
 62
7
  6
CONTINUOUS
 10
414.9434883801
 20
179.7670242622
 11
414.4434874264
 21
179.639364703
  0
LINE
  8
0
 62
7
  6
CONTINUOUS
 10
403.9434881416
 20
179.7670242622
 11
403.4434879032
 21
179.639364703
  0
LINE
  8
0
 62
7
  6
CONTINUOUS
 10
414.4434874264
 20
178.8734072581
 11
415.0684879032
 21
179.0010668285
  0
LINE
  8
0
 62
7
  6
CONTINUOUS
 10
403.4434879032
 20
178.8734072581
 11
404.0684876648
 21
179.0010668285
  0
LINE
  8
AXES
 62
7
  6
CONTINUOUS
 10
501.0369615344
 20
159.8234072581
 11
491.8500142721
 21
159.8234072581
  0
LINE
  8
AXES
 62
7
  6
CONTINUOUS
 10
231.0369615344
 20
159.8234072581
 11
221.8500142721
 21
159.8234072581
  0
LINE
  8
0
 62
7
  6
CONTINUOUS
 10
308.8184883801
 20
184.2351094618
 11
309.1934883801
 21
184.1074499026
  0
LINE
  8
0
 62
7
  6
CONTINUOUS
 10
240.4434879032
 20
273.6500028506
 11
240.4434879032
 21
271.0968114271
  0
LINE
  8
0
 62
7
  6
CONTINUOUS
 10
241.4434798695
 20
271.0968114271
 11
241.4434798695
 21
273.6500028506
  0
LINE
  8
0
 62
7
  6
CONTINUOUS
 10
246.1101088863
 20
273.6500028506
 11
246.1101088863
 21
271.0968114271
  0
LINE
  8
0
 62
7
  6
CONTINUOUS
 10
247.1101008526
 20
271.0968114271
 11
247.1101008526
 21
273.6500028506
  0
LINE
  8
0
 62
7
  6
CONTINUOUS
 10
248.4434236332
 20
276.3734072581
 11
248.4434236332
 21
268.3734072581
  0
LINE
  8
0
 62
7
  6
CONTINUOUS
 10
249.4434155995
 20
268.3734072581
 11
249.4434155995
 21
275.3521307841
  0
LINE
  8
0
 62
7
  6
CONTINUOUS
 10
240.6101532359
 20
274.5010670557
 11
240.4434879032
 21
273.6500028506
  0
LINE
  8
0
 62
7
  6
CONTINUOUS
 10
241.4434798695
 20
273.6500028506
 11
241.6101451574
 21
274.3308538332
  0
LINE
  8
0
 62
7
  6
CONTINUOUS
 10
401.9434879032
 20
183.9797903433
 11
402.4434881416
 21
184.1074499026
  0
LINE
  8
0
 62
7
  6
CONTINUOUS
 10
402.4434881416
 20
184.8734072581
 11
401.8184876648
 21
184.7457476988
  0
LINE
  8
0
 62
7
  6
CONTINUOUS
 10
356.6434879032
 20
178.8734072581
 11
357.2684880224
 21
179.0010668285
  0
LINE
  8
0
 62
7
  6
CONTINUOUS
 10
361.6434881416
 20
181.5542583599
 11
362.2684879032
 21
181.6819179192
  0
LINE
  8
0
 62
7
  6
CONTINUOUS
 10
327.9434869496
 20
178.8734072581
 11
328.5684888569
 21
179.0010668285
  0
LINE
  8
0
 62
7
  6
CONTINUOUS
 10
292.4434879032
 20
178.8734072581
 11
293.1934879032
 21
178.8734072581
  0
LINE
  8
0
 62
7
  6
CONTINUOUS
 10
294.1934878436
 20
178.8734072581
 11
298.6934876648
 21
178.8734072581
  0
LINE
  8
0
 62
7
  6
CONTINUOUS
 10
305.6934874264
 20
178.8734072581
 11
306.4434874264
 21
178.8734072581
  0
LINE
  8
0
 62
7
  6
CONTINUOUS
 10
309.5684883801
 20
178.8734072581
 11
310.4434879032
 21
178.8734072581
  0
LINE
  8
0
 62
7
  6
CONTINUOUS
 10
311.4434883801
 20
178.8734072581
 11
312.1934883801
 21
178.8734072581
  0
LINE
  8
0
 62
7
  6
CONTINUOUS
 10
315.6934879032
 20
178.8734072581
 11
316.4434879032
 21
178.8734072581
  0
LINE
  8
0
 62
7
  6
CONTINUOUS
 10
319.4434879032
 20
178.8734072581
 11
320.1934879032
 21
178.8734072581
  0
LINE
  8
0
 62
7
  6
CONTINUOUS
 10
323.1934879032
 20
178.8734072581
 11
323.9434879032
 21
178.8734072581
  0
LINE
  8
0
 62
7
  6
CONTINUOUS
 10
326.9434879032
 20
178.8734072581
 11
327.9434869496
 21
178.8734072581
  0
LINE
  8
0
 62
7
  6
CONTINUOUS
 10
353.6434879032
 20
178.8734072581
 11
356.6434879032
 21
178.8734072581
  0
LINE
  8
0
 62
7
  6
CONTINUOUS
 10
358.643487784
 20
178.8734072581
 11
359.393487784
 21
178.8734072581
  0
LINE
  8
0
 62
7
  6
CONTINUOUS
 10
363.6434876648
 20
178.8734072581
 11
364.3934876648
 21
178.8734072581
  0
LINE
  8
0
 62
7
  6
CONTINUOUS
 10
366.1434874264
 20
178.8734072581
 11
367.1434879032
 21
178.8734072581
  0
LINE
  8
0
 62
7
  6
CONTINUOUS
 10
368.8934883801
 20
178.8734072581
 11
369.6434883801
 21
178.8734072581
  0
LINE
  8
0
 62
7
  6
CONTINUOUS
 10
396.4434879628
 20
178.8734072581
 11
397.4434879032
 21
178.8734072581
  0
LINE
  8
0
 62
7
  6
CONTINUOUS
 10
402.4434881416
 20
178.8734072581
 11
403.4434879032
 21
178.8734072581
  0
LINE
  8
0
 62
7
  6
CONTINUOUS
 10
406.4434879032
 20
178.8734072581
 11
410.9434879032
 21
178.8734072581
  0
LINE
  8
0
 62
7
  6
CONTINUOUS
 10
413.9434879032
 20
178.8734072581
 11
414.4434874264
 21
178.8734072581
  0
LINE
  8
0
 62
7
  6
CONTINUOUS
 10
417.4434874264
 20
178.8734072581
 11
418.1934874264
 21
178.8734072581
  0
LINE
  8
0
 62
7
  6
CONTINUOUS
 10
419.9434879032
 20
178.8734072581
 11
420.9434869496
 21
178.8734072581
  0
LINE
  8
0
 62
7
  6
CONTINUOUS
 10
422.6934888569
 20
178.8734072581
 11
423.4434888569
 21
178.8734072581
  0
LINE
  8
0
 62
7
  6
CONTINUOUS
 10
424.4434879032
 20
178.8734072581
 11
428.9434879032
 21
178.8734072581
  0
LINE
  8
0
 62
7
  6
CONTINUOUS
 10
428.9434879032
 20
179.639364703
 11
425.1934879032
 21
179.639364703
  0
LINE
  8
0
 62
7
  6
CONTINUOUS
 10
414.4434874264
 20
179.639364703
 11
413.9434879032
 21
179.639364703
  0
LINE
  8
0
 62
7
  6
CONTINUOUS
 10
410.9434879032
 20
179.639364703
 11
407.1934879032
 21
179.639364703
  0
LINE
  8
0
 62
7
  6
CONTINUOUS
 10
403.4434879032
 20
179.639364703
 11
402.4434881416
 21
179.639364703
  0
LINE
  8
0
 62
7
  6
CONTINUOUS
 10
356.768487784
 20
179.639364703
 11
354.3934879032
 21
179.639364703
  0
LINE
  8
0
 62
7
  6
CONTINUOUS
 10
327.9434869496
 20
179.639364703
 11
326.9434879032
 21
179.639364703
  0
LINE
  8
0
 62
7
  6
CONTINUOUS
 10
298.6934876648
 20
179.639364703
 11
294.9434878436
 21
179.639364703
  0
LINE
  8
AXES
 62
7
  6
CONTINUOUS
 10
221.8500142721
 20
179.9234072581
 11
231.0369615344
 21
179.9234072581
  0
LINE
  8
AXES
 62
7
  6
CONTINUOUS
 10
491.8500142721
 20
179.9234072581
 11
501.0369615344
 21
179.9234072581
  0
LINE
  8
0
 62
7
  6
CONTINUOUS
 10
312.6934879032
 20
180.4053221479
 11
315.1934883801
 21
180.4053221479
  0
LINE
  8
0
 62
7
  6
CONTINUOUS
 10
315.0684874264
 20
180.9159603849
 11
312.8184874264
 21
180.9159603849
  0
LINE
  8
0
 62
7
  6
CONTINUOUS
 10
306.4434874264
 20
181.5542583599
 11
308.5684879032
 21
181.5542583599
  0
LINE
  8
0
 62
7
  6
CONTINUOUS
 10
354.3934879032
 20
181.5542583599
 11
356.768487784
 21
181.5542583599
  0
LINE
  8
0
 62
7
  6
CONTINUOUS
 10
359.393487784
 20
181.5542583599
 11
361.6434881416
 21
181.5542583599
  0
LINE
  8
0
 62
7
  6
CONTINUOUS
 10
294.9434878436
 20
181.6819179192
 11
298.193487784
 21
181.6819179192
  0
LINE
  8
0
 62
7
  6
CONTINUOUS
 10
425.1934879032
 20
181.6819179192
 11
428.4434869496
 21
181.6819179192
  0
LINE
  8
0
 62
7
  6
CONTINUOUS
 10
361.7684876648
 20
182.3202157154
 11
359.393487784
 21
182.3202157154
  0
LINE
  8
0
 62
7
  6
CONTINUOUS
 10
356.768487784
 20
182.3202157154
 11
354.3934879032
 21
182.3202157154
  0
LINE
  8
0
 62
7
  6
CONTINUOUS
 10
308.8184883801
 20
182.3202157154
 11
306.4434874264
 21
182.3202157154
  0
LINE
  8
0
 62
7
  6
CONTINUOUS
 10
428.4434869496
 20
182.4478752747
 11
425.1934879032
 21
182.4478752747
  0
LINE
  8
0
 62
7
  6
CONTINUOUS
 10
298.193487784
 20
182.4478752747
 11
294.9434878436
 21
182.4478752747
  0
LINE
  8
0
 62
7
  6
CONTINUOUS
 10
294.9434878436
 20
184.1074499026
 11
298.6934876648
 21
184.1074499026
  0
LINE
  8
0
 62
7
  6
CONTINUOUS
 10
326.9434879032
 20
184.1074499026
 11
327.9434869496
 21
184.1074499026
  0
LINE
  8
0
 62
7
  6
CONTINUOUS
 10
354.3934879032
 20
184.1074499026
 11
356.768487784
 21
184.1074499026
  0
LINE
  8
0
 62
7
  6
CONTINUOUS
 10
402.4434881416
 20
184.1074499026
 11
403.4434879032
 21
184.1074499026
  0
LINE
  8
0
 62
7
  6
CONTINUOUS
 10
425.1934879032
 20
184.1074499026
 11
428.9434879032
 21
184.1074499026
  0
LINE
  8
0
 62
7
  6
CONTINUOUS
 10
306.4434874264
 20
184.2351094618
 11
308.8184883801
 21
184.2351094618
  0
LINE
  8
0
 62
7
  6
CONTINUOUS
 10
317.4434869496
 20
184.2351094618
 11
319.4434879032
 21
184.2351094618
  0
LINE
  8
0
 62
7
  6
CONTINUOUS
 10
320.1934879032
 20
184.2351094618
 11
322.1934888569
 21
184.2351094618
  0
LINE
  8
0
 62
7
  6
CONTINUOUS
 10
359.393487784
 20
184.2351094618
 11
361.7684876648
 21
184.2351094618
  0
LINE
  8
0
 62
7
  6
CONTINUOUS
 10
428.9434879032
 20
184.8734072581
 11
424.4434879032
 21
184.8734072581
  0
LINE
  8
0
 62
7
  6
CONTINUOUS
 10
423.4434888569
 20
184.8734072581
 11
422.3184888569
 21
184.8734072581
  0
LINE
  8
0
 62
7
  6
CONTINUOUS
 10
418.5684888569
 20
184.8734072581
 11
417.4434874264
 21
184.8734072581
  0
LINE
  8
0
 62
7
  6
CONTINUOUS
 10
416.4434883801
 20
184.8734072581
 11
415.6934883801
 21
184.8734072581
  0
LINE
  8
0
 62
7
  6
CONTINUOUS
 10
412.6934883801
 20
184.8734072581
 11
411.9434883801
 21
184.8734072581
  0
LINE
  8
0
 62
7
  6
CONTINUOUS
 10
407.1934879032
 20
184.8734072581
 11
406.4434879032
 21
184.8734072581
  0
LINE
  8
0
 62
7
  6
CONTINUOUS
 10
403.4434879032
 20
184.8734072581
 11
402.4434881416
 21
184.8734072581
  0
LINE
  8
0
 62
7
  6
CONTINUOUS
 10
399.443487784
 20
184.8734072581
 11
398.693487784
 21
184.8734072581
  0
LINE
  8
0
 62
7
  6
CONTINUOUS
 10
395.1934879032
 20
184.8734072581
 11
394.4434879032
 21
184.8734072581
  0
LINE
  8
0
 62
7
  6
CONTINUOUS
 10
369.6434883801
 20
184.8734072581
 11
368.5184883801
 21
184.8734072581
  0
LINE
  8
0
 62
7
  6
CONTINUOUS
 10
364.7684876648
 20
184.8734072581
 11
363.6434876648
 21
184.8734072581
  0
LINE
  8
0
 62
7
  6
CONTINUOUS
 10
361.6434881416
 20
184.8734072581
 11
358.643487784
 21
184.8734072581
  0
LINE
  8
0
 62
7
  6
CONTINUOUS
 10
356.6434879032
 20
184.8734072581
 11
353.6434879032
 21
184.8734072581
  0
LINE
  8
0
 62
7
  6
CONTINUOUS
 10
327.9434869496
 20
184.8734072581
 11
326.9434879032
 21
184.8734072581
  0
LINE
  8
0
 62
7
  6
CONTINUOUS
 10
323.9434879032
 20
184.8734072581
 11
323.1934879032
 21
184.8734072581
  0
LINE
  8
0
 62
7
  6
CONTINUOUS
 10
322.1934888569
 20
184.8734072581
 11
317.4434869496
 21
184.8734072581
  0
LINE
  8
0
 62
7
  6
CONTINUOUS
 10
314.4434883801
 20
184.8734072581
 11
313.4434879032
 21
184.8734072581
  0
LINE
  8
0
 62
7
  6
CONTINUOUS
 10
308.6934874264
 20
184.8734072581
 11
305.6934874264
 21
184.8734072581
  0
LINE
  8
0
 62
7
  6
CONTINUOUS
 10
298.6934876648
 20
184.8734072581
 11
294.1934878436
 21
184.8734072581
  0
LINE
  8
0
 62
7
  6
CONTINUOUS
 10
293.1934879032
 20
184.8734072581
 11
292.4434879032
 21
184.8734072581
  0
LINE
  8
0
 62
7
  6
CONTINUOUS
 10
326.3184888569
 20
179.0010668285
 11
326.9434879032
 21
178.8734072581
  0
LINE
  8
0
 62
7
  6
CONTINUOUS
 10
309.3184879032
 20
184.7457476988
 11
308.6934874264
 21
184.8734072581
  0
LINE
  8
0
 62
7
  6
CONTINUOUS
 10
328.5684888569
 20
184.7457476988
 11
327.9434869496
 21
184.8734072581
  0
LINE
  8
0
 62
7
  6
CONTINUOUS
 10
357.2684880224
 20
184.7457476988
 11
356.6434879032
 21
184.8734072581
  0
LINE
  8
0
 62
7
  6
CONTINUOUS
 10
362.2684879032
 20
184.7457476988
 11
361.6434881416
 21
184.8734072581
  0
LINE
  8
0
 62
7
  6
CONTINUOUS
 10
401.8184876648
 20
179.0010668285
 11
402.4434881416
 21
178.8734072581
  0
LINE
  8
0
 62
7
  6
CONTINUOUS
 10
326.9434879032
 20
179.639364703
 11
326.4434869496
 21
179.7670242622
  0
LINE
  8
0
 62
7
  6
CONTINUOUS
 10
327.9434869496
 20
184.1074499026
 11
328.4434879032
 21
183.9797903433
  0
LINE
  8
0
 62
7
  6
CONTINUOUS
 10
356.768487784
 20
181.5542583599
 11
357.143487784
 21
181.4265988007
  0
LINE
  8
0
 62
7
  6
CONTINUOUS
 10
356.768487784
 20
184.1074499026
 11
357.143487784
 21
183.9797903433
  0
LINE
  8
0
 62
7
  6
CONTINUOUS
 10
325.8184879032
 20
179.2563859805
 11
326.3184888569
 21
179.0010668285
  0
LINE
  8
0
 62
7
  6
CONTINUOUS
 10
329.0684869496
 20
184.4904285803
 11
328.5684888569
 21
184.7457476988
  0
LINE
  8
0
 62
7
  6
CONTINUOUS
 10
326.4434869496
 20
179.7670242622
 11
326.0684869496
 21
180.0223434701
  0
LINE
  8
0
 62
7
  6
CONTINUOUS
 10
328.4434879032
 20
183.9797903433
 11
328.8184879032
 21
183.7244712248
  0
LINE
  8
0
 62
7
  6
CONTINUOUS
 10
309.8184874264
 20
184.3627690211
 11
309.3184879032
 21
184.7457476988
  0
LINE
  8
0
 62
7
  6
CONTINUOUS
 10
309.1934883801
 20
184.1074499026
 11
309.4434874264
 21
183.8521307841
  0
LINE
  8
0
 62
7
  6
CONTINUOUS
 10
325.3184869496
 20
179.7670242622
 11
325.8184879032
 21
179.2563859805
  0
LINE
  8
0
 62
7
  6
CONTINUOUS
 10
310.1934874264
 20
183.8521307841
 11
309.8184874264
 21
184.3627690211
  0
LINE
  8
0
 62
7
  6
CONTINUOUS
 10
241.9434758526
 20
269.9053222075
 11
241.6101451574
 21
270.4159604445
  0
LINE
  8
0
 62
7
  6
CONTINUOUS
 10
245.6101129032
 20
274.8414925471
 11
245.9434437176
 21
274.3308538332
  0
LINE
  8
0
 62
7
  6
CONTINUOUS
 10
240.6101532359
 20
270.2457476988
 11
240.9434838863
 21
269.5648965969
  0
LINE
  8
0
 62
7
  6
CONTINUOUS
 10
246.9434356838
 20
274.5010670557
 11
246.6101048695
 21
275.1819180384
  0
LINE
  8
0
 62
7
  6
CONTINUOUS
 10
241.6101451574
 20
270.4159604445
 11
241.4434798695
 21
271.0968114271
  0
LINE
  8
0
 62
7
  6
CONTINUOUS
 10
245.9434437176
 20
274.3308538332
 11
246.1101088863
 21
273.6500028506
  0
LINE
  8
0
 62
7
  6
CONTINUOUS
 10
240.4434879032
 20
271.0968114271
 11
240.6101532359
 21
270.2457476988
  0
LINE
  8
0
 62
7
  6
CONTINUOUS
 10
247.1101008526
 20
273.6500028506
 11
246.9434356838
 21
274.5010670557
  0
LINE
  8
0
 62
7
  6
CONTINUOUS
 10
254.1100450932
 20
276.3734072581
 11
254.1100450932
 21
269.5648965969
  0
LINE
  8
0
 62
7
  6
CONTINUOUS
 10
255.1100370594
 20
268.3734072581
 11
255.1100370594
 21
276.3734072581
  0
LINE
  8
0
 62
7
  6
CONTINUOUS
 10
260.4433272282
 20
273.6500028506
 11
260.4433272282
 21
271.0968114271
  0
LINE
  8
0
 62
7
  6
CONTINUOUS
 10
261.4433191944
 20
271.0968114271
 11
261.4433191944
 21
273.6500028506
  0
LINE
  8
0
 62
7
  6
CONTINUOUS
 10
266.1099477345
 20
273.6500028506
 11
266.1099477345
 21
271.0968114271
  0
LINE
  8
0
 62
7
  6
CONTINUOUS
 10
267.1099397007
 20
271.0968114271
 11
267.1099397007
 21
273.6500028506
  0
LINE
  8
0
 62
7
  6
CONTINUOUS
 10
268.4432629582
 20
276.3734072581
 11
268.4432629582
 21
268.3734072581
  0
LINE
  8
0
 62
7
  6
CONTINUOUS
 10
246.9434356838
 20
270.2457476988
 11
247.1101008526
 21
271.0968114271
  0
LINE
  8
0
 62
7
  6
CONTINUOUS
 10
260.6099919201
 20
274.5010670557
 11
260.4433272282
 21
273.6500028506
  0
LINE
  8
0
 62
7
  6
CONTINUOUS
 10
246.1101088863
 20
271.0968114271
 11
245.9434437176
 21
270.4159604445
  0
LINE
  8
0
 62
7
  6
CONTINUOUS
 10
240.9434838863
 20
275.1819180384
 11
240.6101532359
 21
274.5010670557
  0
LINE
  8
0
 62
7
  6
CONTINUOUS
 10
328.4434879032
 20
179.7670242622
 11
327.9434869496
 21
179.639364703
  0
LINE
  8
0
 62
7
  6
CONTINUOUS
 10
326.4434869496
 20
183.9797903433
 11
326.9434879032
 21
184.1074499026
  0
LINE
  8
0
 62
7
  6
CONTINUOUS
 10
326.9434879032
 20
184.8734072581
 11
326.3184888569
 21
184.7457476988
  0
LINE
  8
0
 62
7
  6
CONTINUOUS
 10
413.3184874264
 20
179.0010668285
 11
413.9434879032
 21
178.8734072581
  0
LINE
  8
0
 62
7
  6
CONTINUOUS
 10
404.0684876648
 20
184.7457476988
 11
403.4434879032
 21
184.8734072581
  0
LINE
  8
0
 62
7
  6
CONTINUOUS
 10
402.4434881416
 20
179.639364703
 11
401.9434879032
 21
179.7670242622
  0
LINE
  8
0
 62
7
  6
CONTINUOUS
 10
413.9434879032
 20
179.639364703
 11
413.4434883801
 21
179.7670242622
  0
LINE
  8
0
 62
7
  6
CONTINUOUS
 10
403.4434879032
 20
184.1074499026
 11
403.9434881416
 21
183.9797903433
  0
LINE
  8
0
 62
7
  6
CONTINUOUS
 10
361.7684876648
 20
184.2351094618
 11
362.1434876648
 21
184.1074499026
  0
LINE
  8
0
 62
7
  6
CONTINUOUS
 10
357.7684879032
 20
181.8095774784
 11
357.518487784
 21
181.9372370377
  0
LINE
  8
0
 62
7
  6
CONTINUOUS
 10
357.7684879032
 20
184.3627690211
 11
357.2684880224
 21
184.7457476988
  0
LINE
  8
0
 62
7
  6
CONTINUOUS
 10
240.9434838863
 20
269.5648965969
 11
241.6101451574
 21
268.8840455547
  0
LINE
  8
0
 62
7
  6
CONTINUOUS
 10
329.5684879032
 20
183.9797903433
 11
329.0684869496
 21
184.4904285803
  0
LINE
  8
0
 62
7
  6
CONTINUOUS
 10
246.6101048695
 20
275.1819180384
 11
245.9434437176
 21
275.8627690211
  0
LINE
  8
0
 62
7
  6
CONTINUOUS
 10
261.9433151775
 20
269.9053222075
 11
261.6099838863
 21
270.4159604445
  0
LINE
  8
0
 62
7
  6
CONTINUOUS
 10
326.0684869496
 20
180.0223434701
 11
325.8184879032
 21
180.4053221479
  0
LINE
  8
0
 62
7
  6
CONTINUOUS
 10
265.6099517513
 20
274.8414925471
 11
265.9432830425
 21
274.3308538332
  0
LINE
  8
0
 62
7
  6
CONTINUOUS
 10
254.1100450932
 20
269.5648965969
 11
249.9434115826
 21
276.3734072581
  0
LINE
  8
0
 62
7
  6
CONTINUOUS
 10
249.4434155995
 20
275.3521307841
 11
253.61004911
 21
268.3734072581
  0
LINE
  8
0
 62
7
  6
CONTINUOUS
 10
260.6099919201
 20
270.2457476988
 11
260.9433232113
 21
269.5648965969
  0
LINE
  8
0
 62
7
  6
CONTINUOUS
 10
266.9432750088
 20
274.5010670557
 11
266.6099437176
 21
275.1819180384
  0
LINE
  8
0
 62
7
  6
CONTINUOUS
 10
261.6099838863
 20
270.4159604445
 11
261.4433191944
 21
271.0968114271
  0
LINE
  8
0
 62
7
  6
CONTINUOUS
 10
265.9432830425
 20
274.3308538332
 11
266.1099477345
 21
273.6500028506
  0
LINE
  8
0
 62
7
  6
CONTINUOUS
 10
260.4433272282
 20
271.0968114271
 11
260.6099919201
 21
270.2457476988
  0
LINE
  8
0
 62
7
  6
CONTINUOUS
 10
267.1099397007
 20
273.6500028506
 11
266.9432750088
 21
274.5010670557
  0
LINE
  8
0
 62
7
  6
CONTINUOUS
 10
269.4432549244
 20
268.3734072581
 11
269.4432549244
 21
272.1180881396
  0
LINE
  8
0
 62
7
  6
CONTINUOUS
 10
269.4432549244
 20
273.1393646136
 11
269.4432549244
 21
275.3521307841
  0
LINE
  8
0
 62
7
  6
CONTINUOUS
 10
273.7765521732
 20
272.1180881396
 11
273.7765521732
 21
273.1393646136
  0
LINE
  8
0
 62
7
  6
CONTINUOUS
 10
274.4432147556
 20
275.3521307841
 11
274.4432147556
 21
276.3734072581
  0
LINE
  8
0
 62
7
  6
CONTINUOUS
 10
275.7765361057
 20
276.3734072581
 11
275.7765361057
 21
268.3734072581
  0
LINE
  8
0
 62
7
  6
CONTINUOUS
 10
276.776528072
 20
268.3734072581
 11
276.776528072
 21
272.1180881396
  0
LINE
  8
0
 62
7
  6
CONTINUOUS
 10
276.776528072
 20
273.1393646136
 11
276.776528072
 21
275.3521307841
  0
LINE
  8
0
 62
7
  6
CONTINUOUS
 10
281.1098291355
 20
272.1180881396
 11
281.1098291355
 21
273.1393646136
  0
LINE
  8
0
 62
7
  6
CONTINUOUS
 10
281.7764879032
 20
275.3521307841
 11
281.7764879032
 21
276.3734072581
  0
LINE
  8
0
 62
7
  6
CONTINUOUS
 10
266.9432750088
 20
270.2457476988
 11
267.1099397007
 21
271.0968114271
  0
LINE
  8
0
 62
7
  6
CONTINUOUS
 10
261.4433191944
 20
273.6500028506
 11
261.6099838863
 21
274.3308538332
  0
LINE
  8
0
 62
7
  6
CONTINUOUS
 10
266.1099477345
 20
271.0968114271
 11
265.9432830425
 21
270.4159604445
  0
LINE
  8
0
 62
7
  6
CONTINUOUS
 10
246.6101048695
 20
269.5648965969
 11
246.9434356838
 21
270.2457476988
  0
LINE
  8
0
 62
7
  6
CONTINUOUS
 10
260.9433232113
 20
275.1819180384
 11
260.6099919201
 21
274.5010670557
  0
LINE
  8
0
 62
7
  6
CONTINUOUS
 10
258.6100079876
 20
274.6712798014
 11
256.4433593632
 21
270.4159604445
  0
LINE
  8
0
 62
7
  6
CONTINUOUS
 10
256.9433553463
 20
270.0755349531
 11
259.1100039707
 21
274.3308538332
  0
LINE
  8
0
 62
7
  6
CONTINUOUS
 10
241.6101451574
 20
274.3308538332
 11
241.9434758526
 21
274.8414925471
  0
LINE
  8
0
 62
7
  6
CONTINUOUS
 10
245.9434437176
 20
270.4159604445
 11
245.6101129032
 21
269.9053222075
  0
LINE
  8
0
 62
7
  6
CONTINUOUS
 10
401.3184881416
 20
179.2563859805
 11
401.8184876648
 21
179.0010668285
  0
LINE
  8
0
 62
7
  6
CONTINUOUS
 10
412.8184879032
 20
179.2563859805
 11
413.3184874264
 21
179.0010668285
  0
LINE
  8
0
 62
7
  6
CONTINUOUS
 10
404.5684879032
 20
184.4904285803
 11
404.0684876648
 21
184.7457476988
  0
LINE
  8
0
 62
7
  6
CONTINUOUS
 10
241.6101451574
 20
268.8840455547
 11
242.2768065477
 21
268.5436200186
  0
LINE
  8
0
 62
7
  6
CONTINUOUS
 10
242.4434718357
 20
269.5648965969
 11
241.9434758526
 21
269.9053222075
  0
LINE
  8
0
 62
7
  6
CONTINUOUS
 10
245.1101169201
 20
275.1819180384
 11
245.6101129032
 21
274.8414925471
  0
LINE
  8
0
 62
7
  6
CONTINUOUS
 10
256.4433593632
 20
270.4159604445
 11
256.9433553463
 21
270.0755349531
  0
LINE
  8
0
 62
7
  6
CONTINUOUS
 10
262.4433111607
 20
269.5648965969
 11
261.9433151775
 21
269.9053222075
  0
LINE
  8
0
 62
7
  6
CONTINUOUS
 10
259.1100039707
 20
274.3308538332
 11
258.6100079876
 21
274.6712798014
  0
LINE
  8
0
 62
7
  6
CONTINUOUS
 10
362.7684881416
 20
184.3627690211
 11
362.2684879032
 21
184.7457476988
  0
LINE
  8
0
 62
7
  6
CONTINUOUS
 10
260.9433232113
 20
269.5648965969
 11
261.6099838863
 21
268.8840455547
  0
LINE
  8
0
 62
7
  6
CONTINUOUS
 10
357.143487784
 20
181.4265988007
 11
357.3934879032
 21
181.1712796822
  0
LINE
  8
0
 62
7
  6
CONTINUOUS
 10
266.6099437176
 20
275.1819180384
 11
265.9432830425
 21
275.8627690211
  0
LINE
  8
0
 62
7
  6
CONTINUOUS
 10
357.143487784
 20
183.9797903433
 11
357.3934879032
 21
183.7244712248
  0
LINE
  8
0
 62
7
  6
CONTINUOUS
 10
362.1434876648
 20
184.1074499026
 11
362.3934881416
 21
183.8521307841
  0
LINE
  8
0
 62
7
  6
CONTINUOUS
 10
328.8184879032
 20
183.7244712248
 11
329.0684869496
 21
183.3414921894
  0
LINE
  8
0
 62
7
  6
CONTINUOUS
 10
325.0684879032
 20
180.2776625886
 11
325.3184869496
 21
179.7670242622
  0
LINE
  8
0
 62
7
  6
CONTINUOUS
 10
329.8184869496
 20
183.4691521063
 11
329.5684879032
 21
183.9797903433
  0
LINE
  8
0
 62
7
  6
CONTINUOUS
 10
310.4434879032
 20
178.8734072581
 11
309.3184879032
 21
181.8095774784
  0
LINE
  8
0
 62
7
  6
CONTINUOUS
 10
308.5684879032
 20
181.5542583599
 11
309.5684883801
 21
178.8734072581
  0
LINE
  8
0
 62
7
  6
CONTINUOUS
 10
316.4434879032
 20
178.8734072581
 11
314.4434883801
 21
184.8734072581
  0
LINE
  8
0
 62
7
  6
CONTINUOUS
 10
309.4434874264
 20
183.8521307841
 11
309.5684883801
 21
183.4691521063
  0
LINE
  8
0
 62
7
  6
CONTINUOUS
 10
310.3184883801
 20
183.4691521063
 11
310.1934874264
 21
183.8521307841
  0
LINE
  8
0
 62
7
  6
CONTINUOUS
 10
315.1934883801
 20
180.4053221479
 11
315.6934879032
 21
178.8734072581
  0
LINE
  8
0
 62
7
  6
CONTINUOUS
 10
313.9434874264
 20
184.3627690211
 11
315.0684874264
 21
180.9159603849
  0
LINE
  8
0
 62
7
  6
CONTINUOUS
 10
292.4434879032
 20
184.8734072581
 11
292.4434879032
 21
178.8734072581
  0
LINE
  8
0
 62
7
  6
CONTINUOUS
 10
293.1934879032
 20
178.8734072581
 11
293.1934879032
 21
184.8734072581
  0
LINE
  8
0
 62
7
  6
CONTINUOUS
 10
294.1934878436
 20
184.8734072581
 11
294.1934878436
 21
178.8734072581
  0
LINE
  8
0
 62
7
  6
CONTINUOUS
 10
294.9434878436
 20
179.639364703
 11
294.9434878436
 21
181.6819179192
  0
LINE
  8
0
 62
7
  6
CONTINUOUS
 10
294.9434878436
 20
182.4478752747
 11
294.9434878436
 21
184.1074499026
  0
LINE
  8
0
 62
7
  6
CONTINUOUS
 10
298.193487784
 20
181.6819179192
 11
298.193487784
 21
182.4478752747
  0
LINE
  8
0
 62
7
  6
CONTINUOUS
 10
298.6934876648
 20
178.8734072581
 11
298.6934876648
 21
179.639364703
  0
LINE
  8
0
 62
7
  6
CONTINUOUS
 10
298.6934876648
 20
184.1074499026
 11
298.6934876648
 21
184.8734072581
  0
LINE
  8
0
 62
7
  6
CONTINUOUS
 10
266.6099437176
 20
269.5648965969
 11
266.9432750088
 21
270.2457476988
  0
LINE
  8
0
 62
7
  6
CONTINUOUS
 10
261.6099838863
 20
274.3308538332
 11
261.9433151775
 21
274.8414925471
  0
LINE
  8
0
 62
7
  6
CONTINUOUS
 10
265.9432830425
 20
270.4159604445
 11
265.6099517513
 21
269.9053222075
  0
LINE
  8
0
 62
7
  6
CONTINUOUS
 10
241.6101451574
 20
275.8627690211
 11
240.9434838863
 21
275.1819180384
  0
LINE
  8
0
 62
7
  6
CONTINUOUS
 10
245.9434437176
 20
268.8840455547
 11
246.6101048695
 21
269.5648965969
  0
LINE
  8
0
 62
7
  6
CONTINUOUS
 10
245.9434437176
 20
275.8627690211
 11
245.2767825657
 21
276.2031945124
  0
LINE
  8
0
 62
7
  6
CONTINUOUS
 10
261.6099838863
 20
268.8840455547
 11
262.2766464687
 21
268.5436200186
  0
LINE
  8
0
 62
7
  6
CONTINUOUS
 10
265.9432830425
 20
275.8627690211
 11
265.2766223675
 21
276.2031945124
  0
LINE
  8
0
 62
7
  6
CONTINUOUS
 10
401.9434879032
 20
179.7670242622
 11
401.5684879032
 21
180.0223434701
  0
LINE
  8
0
 62
7
  6
CONTINUOUS
 10
265.1099557682
 20
275.1819180384
 11
265.6099517513
 21
274.8414925471
  0
LINE
  8
0
 62
7
  6
CONTINUOUS
 10
403.9434881416
 20
183.9797903433
 11
404.3184881416
 21
183.7244712248
  0
LINE
  8
0
 62
7
  6
CONTINUOUS
 10
413.4434883801
 20
179.7670242622
 11
413.0684883801
 21
180.0223434701
  0
LINE
  8
0
 62
7
  6
CONTINUOUS
 10
358.1434879032
 20
181.2989392414
 11
357.7684879032
 21
181.8095774784
  0
LINE
  8
0
 62
7
  6
CONTINUOUS
 10
358.1434879032
 20
183.8521307841
 11
357.7684879032
 21
184.3627690211
  0
LINE
  8
0
 62
7
  6
CONTINUOUS
 10
363.1434881416
 20
183.8521307841
 11
362.7684881416
 21
184.3627690211
  0
LINE
  8
0
 62
7
  6
CONTINUOUS
 10
325.8184879032
 20
180.4053221479
 11
325.6934869496
 21
180.9159603849
  0
LINE
  8
0
 62
7
  6
CONTINUOUS
 10
305.6934874264
 20
184.8734072581
 11
305.6934874264
 21
178.8734072581
  0
LINE
  8
0
 62
7
  6
CONTINUOUS
 10
306.4434874264
 20
178.8734072581
 11
306.4434874264
 21
181.5542583599
  0
LINE
  8
0
 62
7
  6
CONTINUOUS
 10
306.4434874264
 20
182.3202157154
 11
306.4434874264
 21
184.2351094618
  0
LINE
  8
0
 62
7
  6
CONTINUOUS
 10
309.5684883801
 20
183.4691521063
 11
309.5684883801
 21
183.0861730709
  0
LINE
  8
0
 62
7
  6
CONTINUOUS
 10
310.3184883801
 20
182.9585135117
 11
310.3184883801
 21
183.4691521063
  0
LINE
  8
AXES
 62
7
  6
CONTINUOUS
 10
311.9434879032
 20
278.3734072581
 11
311.9434879032
 21
318.3734072581
  0
LINE
  8
0
 62
7
  6
CONTINUOUS
 10
261.6099838863
 20
275.8627690211
 11
260.9433232113
 21
275.1819180384
  0
LINE
  8
0
 62
7
  6
CONTINUOUS
 10
265.9432830425
 20
268.8840455547
 11
266.6099437176
 21
269.5648965969
  0
LINE
  8
0
 62
7
  6
CONTINUOUS
 10
241.9434758526
 20
274.8414925471
 11
242.4434718357
 21
275.1819180384
  0
LINE
  8
0
 62
7
  6
CONTINUOUS
 10
462.7768218723
 20
269.5648965969
 11
462.1101539341
 21
269.3946838513
  0
LINE
  8
0
 62
7
  6
CONTINUOUS
 10
461.1101539341
 20
276.3734072581
 11
460.4434879032
 21
276.2031945124
  0
LINE
  8
0
 62
7
  6
CONTINUOUS
 10
462.1101539341
 20
268.3734072581
 11
462.9434879032
 21
268.5436200186
  0
LINE
  8
0
 62
7
  6
CONTINUOUS
 10
242.2768065477
 20
268.5436200186
 11
243.110133226
 21
268.3734072581
  0
LINE
  8
0
 62
7
  6
CONTINUOUS
 10
262.2766464687
 20
268.5436200186
 11
263.1099718357
 21
268.3734072581
  0
LINE
  8
0
 62
7
  6
CONTINUOUS
 10
243.110133226
 20
269.3946838513
 11
242.4434718357
 21
269.5648965969
  0
LINE
  8
0
 62
7
  6
CONTINUOUS
 10
263.1099718357
 20
269.3946838513
 11
262.4433111607
 21
269.5648965969
  0
LINE
  8
0
 62
7
  6
CONTINUOUS
 10
244.4434557682
 20
275.3521307841
 11
245.1101169201
 21
275.1819180384
  0
LINE
  8
0
 62
7
  6
CONTINUOUS
 10
264.4432950932
 20
275.3521307841
 11
265.1099557682
 21
275.1819180384
  0
LINE
  8
0
 62
7
  6
CONTINUOUS
 10
400.8184879032
 20
179.7670242622
 11
401.3184881416
 21
179.2563859805
  0
LINE
  8
0
 62
7
  6
CONTINUOUS
 10
405.0684881416
 20
183.9797903433
 11
404.5684879032
 21
184.4904285803
  0
LINE
  8
0
 62
7
  6
CONTINUOUS
 10
412.3184883801
 20
179.7670242622
 11
412.8184879032
 21
179.2563859805
  0
LINE
  8
0
 62
7
  6
CONTINUOUS
 10
329.0684869496
 20
183.3414921894
 11
329.1934879032
 21
182.8308539524
  0
LINE
  8
0
 62
7
  6
CONTINUOUS
 10
324.9434869496
 20
180.9159603849
 11
325.0684879032
 21
180.2776625886
  0
LINE
  8
0
 62
7
  6
CONTINUOUS
 10
329.9434879032
 20
182.8308539524
 11
329.8184869496
 21
183.4691521063
  0
LINE
  8
0
 62
7
  6
CONTINUOUS
 10
317.4434869496
 20
184.8734072581
 11
317.4434869496
 21
184.2351094618
  0
LINE
  8
0
 62
7
  6
CONTINUOUS
 10
319.4434879032
 20
184.2351094618
 11
319.4434879032
 21
178.8734072581
  0
LINE
  8
0
 62
7
  6
CONTINUOUS
 10
320.1934879032
 20
178.8734072581
 11
320.1934879032
 21
184.2351094618
  0
LINE
  8
0
 62
7
  6
CONTINUOUS
 10
322.1934888569
 20
184.2351094618
 11
322.1934888569
 21
184.8734072581
  0
LINE
  8
0
 62
7
  6
CONTINUOUS
 10
323.1934879032
 20
184.8734072581
 11
323.1934879032
 21
178.8734072581
  0
LINE
  8
0
 62
7
  6
CONTINUOUS
 10
323.9434879032
 20
178.8734072581
 11
323.9434879032
 21
184.8734072581
  0
LINE
  8
0
 62
7
  6
CONTINUOUS
 10
324.9434869496
 20
182.8308539524
 11
324.9434869496
 21
180.9159603849
  0
LINE
  8
0
 62
7
  6
CONTINUOUS
 10
325.6934869496
 20
180.9159603849
 11
325.6934869496
 21
182.8308539524
  0
LINE
  8
0
 62
7
  6
CONTINUOUS
 10
329.1934879032
 20
182.8308539524
 11
329.1934879032
 21
180.9159603849
  0
LINE
  8
0
 62
7
  6
CONTINUOUS
 10
329.9434879032
 20
180.9159603849
 11
329.9434879032
 21
182.8308539524
  0
LINE
  8
0
 62
7
  6
CONTINUOUS
 10
245.6101129032
 20
269.9053222075
 11
245.1101169201
 21
269.5648965969
  0
LINE
  8
0
 62
7
  6
CONTINUOUS
 10
261.9433151775
 20
274.8414925471
 11
262.4433111607
 21
275.1819180384
  0
LINE
  8
0
 62
7
  6
CONTINUOUS
 10
265.6099517513
 20
269.9053222075
 11
265.1099557682
 21
269.5648965969
  0
LINE
  8
0
 62
7
  6
CONTINUOUS
 10
242.2768065477
 20
276.2031945124
 11
241.6101451574
 21
275.8627690211
  0
LINE
  8
0
 62
7
  6
CONTINUOUS
 10
243.110133226
 20
268.3734072581
 11
244.4434557682
 21
268.3734072581
  0
LINE
  8
0
 62
7
  6
CONTINUOUS
 10
248.4434236332
 20
268.3734072581
 11
249.4434155995
 21
268.3734072581
  0
LINE
  8
0
 62
7
  6
CONTINUOUS
 10
253.61004911
 20
268.3734072581
 11
255.1100370594
 21
268.3734072581
  0
LINE
  8
0
 62
7
  6
CONTINUOUS
 10
263.1099718357
 20
268.3734072581
 11
264.4432950932
 21
268.3734072581
  0
LINE
  8
0
 62
7
  6
CONTINUOUS
 10
268.4432629582
 20
268.3734072581
 11
269.4432549244
 21
268.3734072581
  0
LINE
  8
0
 62
7
  6
CONTINUOUS
 10
275.7765361057
 20
268.3734072581
 11
276.776528072
 21
268.3734072581
  0
LINE
  8
0
 62
7
  6
CONTINUOUS
 10
443.4434879032
 20
268.3734072581
 11
444.4434879032
 21
268.3734072581
  0
LINE
  8
0
 62
7
  6
CONTINUOUS
 10
448.6101544109
 20
268.3734072581
 11
449.7768213955
 21
268.3734072581
  0
LINE
  8
0
 62
7
  6
CONTINUOUS
 10
451.1101544109
 20
268.3734072581
 11
457.1101548878
 21
268.3734072581
  0
LINE
  8
0
 62
7
  6
CONTINUOUS
 10
460.7768218723
 20
268.3734072581
 11
462.1101539341
 21
268.3734072581
  0
LINE
  8
0
 62
7
  6
CONTINUOUS
 10
465.9434879032
 20
268.3734072581
 11
471.9434879032
 21
268.3734072581
  0
LINE
  8
0
 62
7
  6
CONTINUOUS
 10
475.9434879032
 20
268.3734072581
 11
476.9434879032
 21
268.3734072581
  0
LINE
  8
0
 62
7
  6
CONTINUOUS
 10
245.2767825657
 20
276.2031945124
 11
244.4434557682
 21
276.3734072581
  0
LINE
  8
0
 62
7
  6
CONTINUOUS
 10
265.2766223675
 20
276.2031945124
 11
264.4432950932
 21
276.3734072581
  0
LINE
  8
0
 62
7
  6
CONTINUOUS
 10
401.5684879032
 20
180.0223434701
 11
401.3184881416
 21
180.4053221479
  0
LINE
  8
0
 62
7
  6
CONTINUOUS
 10
364.3934876648
 20
183.5968116656
 11
366.1434874264
 21
178.8734072581
  0
LINE
  8
0
 62
7
  6
CONTINUOUS
 10
366.6434883801
 20
179.5117051437
 11
364.7684876648
 21
184.8734072581
  0
LINE
  8
0
 62
7
  6
CONTINUOUS
 10
357.3934879032
 20
181.1712796822
 11
357.518487784
 21
180.7883008256
  0
LINE
  8
0
 62
7
  6
CONTINUOUS
 10
358.268487784
 20
180.9159603849
 11
358.1434879032
 21
181.2989392414
  0
LINE
  8
0
 62
7
  6
CONTINUOUS
 10
357.3934879032
 20
183.7244712248
 11
357.518487784
 21
183.3414921894
  0
LINE
  8
0
 62
7
  6
CONTINUOUS
 10
358.268487784
 20
183.4691521063
 11
358.1434879032
 21
183.8521307841
  0
LINE
  8
0
 62
7
  6
CONTINUOUS
 10
362.3934881416
 20
183.8521307841
 11
362.5184876648
 21
183.4691521063
  0
LINE
  8
0
 62
7
  6
CONTINUOUS
 10
363.2684876648
 20
183.4691521063
 11
363.1434881416
 21
183.8521307841
  0
LINE
  8
0
 62
7
  6
CONTINUOUS
 10
245.2767825657
 20
268.5436200186
 11
245.9434437176
 21
268.8840455547
  0
LINE
  8
0
 62
7
  6
CONTINUOUS
 10
262.2766464687
 20
276.2031945124
 11
261.6099838863
 21
275.8627690211
  0
LINE
  8
0
 62
7
  6
CONTINUOUS
 10
265.2766223675
 20
268.5436200186
 11
265.9432830425
 21
268.8840455547
  0
LINE
  8
0
 62
7
  6
CONTINUOUS
 10
471.9434879032
 20
269.3946838513
 11
466.9434879032
 21
269.3946838513
  0
LINE
  8
0
 62
7
  6
CONTINUOUS
 10
462.1101539341
 20
269.3946838513
 11
460.7768218723
 21
269.3946838513
  0
LINE
  8
0
 62
7
  6
CONTINUOUS
 10
457.1101548878
 20
269.3946838513
 11
452.1101548878
 21
269.3946838513
  0
LINE
  8
0
 62
7
  6
CONTINUOUS
 10
264.4432950932
 20
269.3946838513
 11
263.1099718357
 21
269.3946838513
  0
LINE
  8
0
 62
7
  6
CONTINUOUS
 10
244.4434557682
 20
269.3946838513
 11
243.110133226
 21
269.3946838513
  0
LINE
  8
0
 62
7
  6
CONTINUOUS
 10
459.4434879032
 20
270.5861731901
 11
458.4434879032
 21
270.5861731901
  0
LINE
  8
0
 62
7
  6
CONTINUOUS
 10
444.4434879032
 20
271.9478753939
 11
447.2768211571
 21
271.9478753939
  0
LINE
  8
0
 62
7
  6
CONTINUOUS
 10
461.1101539341
 20
271.9478753939
 11
462.1101539341
 21
271.9478753939
  0
LINE
  8
0
 62
7
  6
CONTINUOUS
 10
269.4432549244
 20
272.1180881396
 11
273.7765521732
 21
272.1180881396
  0
LINE
  8
0
 62
7
  6
CONTINUOUS
 10
276.776528072
 20
272.1180881396
 11
281.1098291355
 21
272.1180881396
  0
LINE
  8
0
 62
7
  6
CONTINUOUS
 10
452.1101548878
 20
272.1180881396
 11
456.4434879032
 21
272.1180881396
  0
LINE
  8
0
 62
7
  6
CONTINUOUS
 10
466.9434879032
 20
272.1180881396
 11
471.2768218723
 21
272.1180881396
  0
LINE
  8
0
 62
7
  6
CONTINUOUS
 10
462.1101539341
 20
272.9691518679
 11
461.1101539341
 21
272.9691518679
  0
LINE
  8
0
 62
7
  6
CONTINUOUS
 10
447.6101544109
 20
272.9691518679
 11
444.4434879032
 21
272.9691518679
  0
LINE
  8
0
 62
7
  6
CONTINUOUS
 10
471.2768218723
 20
273.1393646136
 11
466.9434879032
 21
273.1393646136
  0
LINE
  8
0
 62
7
  6
CONTINUOUS
 10
456.4434879032
 20
273.1393646136
 11
452.1101548878
 21
273.1393646136
  0
LINE
  8
0
 62
7
  6
CONTINUOUS
 10
281.1098291355
 20
273.1393646136
 11
276.776528072
 21
273.1393646136
  0
LINE
  8
0
 62
7
  6
CONTINUOUS
 10
273.7765521732
 20
273.1393646136
 11
269.4432549244
 21
273.1393646136
  0
LINE
  8
0
 62
7
  6
CONTINUOUS
 10
463.1101539341
 20
274.5010670557
 11
464.1101539341
 21
274.5010670557
  0
LINE
  8
0
 62
7
  6
CONTINUOUS
 10
243.110133226
 20
275.3521307841
 11
244.4434557682
 21
275.3521307841
  0
LINE
  8
0
 62
7
  6
CONTINUOUS
 10
263.1099718357
 20
275.3521307841
 11
264.4432950932
 21
275.3521307841
  0
LINE
  8
0
 62
7
  6
CONTINUOUS
 10
269.4432549244
 20
275.3521307841
 11
274.4432147556
 21
275.3521307841
  0
LINE
  8
0
 62
7
  6
CONTINUOUS
 10
276.776528072
 20
275.3521307841
 11
281.7764879032
 21
275.3521307841
  0
LINE
  8
0
 62
7
  6
CONTINUOUS
 10
452.1101548878
 20
275.3521307841
 11
457.1101548878
 21
275.3521307841
  0
LINE
  8
0
 62
7
  6
CONTINUOUS
 10
461.1101539341
 20
275.3521307841
 11
462.1101539341
 21
275.3521307841
  0
LINE
  8
0
 62
7
  6
CONTINUOUS
 10
466.9434879032
 20
275.3521307841
 11
471.9434879032
 21
275.3521307841
  0
LINE
  8
0
 62
7
  6
CONTINUOUS
 10
444.4434879032
 20
275.5223435297
 11
447.6101544109
 21
275.5223435297
  0
LINE
  8
0
 62
7
  6
CONTINUOUS
 10
473.2768218723
 20
275.5223435297
 11
475.9434879032
 21
275.5223435297
  0
LINE
  8
0
 62
7
  6
CONTINUOUS
 10
476.9434879032
 20
275.5223435297
 11
479.6101558415
 21
275.5223435297
  0
LINE
  8
0
 62
7
  6
CONTINUOUS
 10
479.6101558415
 20
276.3734072581
 11
473.2768218723
 21
276.3734072581
  0
LINE
  8
0
 62
7
  6
CONTINUOUS
 10
471.9434879032
 20
276.3734072581
 11
465.9434879032
 21
276.3734072581
  0
LINE
  8
0
 62
7
  6
CONTINUOUS
 10
461.9434879032
 20
276.3734072581
 11
461.1101539341
 21
276.3734072581
  0
LINE
  8
0
 62
7
  6
CONTINUOUS
 10
457.1101548878
 20
276.3734072581
 11
451.1101544109
 21
276.3734072581
  0
LINE
  8
0
 62
7
  6
CONTINUOUS
 10
447.4434879032
 20
276.3734072581
 11
443.4434879032
 21
276.3734072581
  0
LINE
  8
0
 62
7
  6
CONTINUOUS
 10
281.7764879032
 20
276.3734072581
 11
275.7765361057
 21
276.3734072581
  0
LINE
  8
0
 62
7
  6
CONTINUOUS
 10
274.4432147556
 20
276.3734072581
 11
268.4432629582
 21
276.3734072581
  0
LINE
  8
0
 62
7
  6
CONTINUOUS
 10
264.4432950932
 20
276.3734072581
 11
263.1099718357
 21
276.3734072581
  0
LINE
  8
0
 62
7
  6
CONTINUOUS
 10
255.1100370594
 20
276.3734072581
 11
254.1100450932
 21
276.3734072581
  0
LINE
  8
0
 62
7
  6
CONTINUOUS
 10
249.9434115826
 20
276.3734072581
 11
248.4434236332
 21
276.3734072581
  0
LINE
  8
0
 62
7
  6
CONTINUOUS
 10
244.4434557682
 20
276.3734072581
 11
243.110133226
 21
276.3734072581
  0
LINE
  8
AXES
 62
7
  6
CONTINUOUS
 10
410.9434879032
 20
278.3734072581
 11
311.9434879032
 21
278.3734072581
  0
LINE
  8
0
 62
7
  6
CONTINUOUS
 10
404.3184881416
 20
183.7244712248
 11
404.5684879032
 21
183.3414921894
  0
LINE
  8
0
 62
7
  6
CONTINUOUS
 10
413.0684883801
 20
180.0223434701
 11
412.8184879032
 21
180.4053221479
  0
LINE
  8
0
 62
7
  6
CONTINUOUS
 10
400.5684881416
 20
180.2776625886
 11
400.8184879032
 21
179.7670242622
  0
LINE
  8
0
 62
7
  6
CONTINUOUS
 10
353.6434879032
 20
184.8734072581
 11
353.6434879032
 21
178.8734072581
  0
LINE
  8
0
 62
7
  6
CONTINUOUS
 10
354.3934879032
 20
179.639364703
 11
354.3934879032
 21
181.5542583599
  0
LINE
  8
0
 62
7
  6
CONTINUOUS
 10
354.3934879032
 20
182.3202157154
 11
354.3934879032
 21
184.1074499026
  0
LINE
  8
0
 62
7
  6
CONTINUOUS
 10
357.518487784
 20
183.3414921894
 11
357.518487784
 21
183.0861730709
  0
LINE
  8
0
 62
7
  6
CONTINUOUS
 10
357.518487784
 20
180.7883008256
 11
357.518487784
 21
180.4053221479
  0
LINE
  8
0
 62
7
  6
CONTINUOUS
 10
358.268487784
 20
180.2776625886
 11
358.268487784
 21
180.9159603849
  0
LINE
  8
0
 62
7
  6
CONTINUOUS
 10
358.268487784
 20
182.9585135117
 11
358.268487784
 21
183.4691521063
  0
LINE
  8
0
 62
7
  6
CONTINUOUS
 10
358.643487784
 20
184.8734072581
 11
358.643487784
 21
178.8734072581
  0
LINE
  8
0
 62
7
  6
CONTINUOUS
 10
359.393487784
 20
178.8734072581
 11
359.393487784
 21
181.5542583599
  0
LINE
  8
0
 62
7
  6
CONTINUOUS
 10
359.393487784
 20
182.3202157154
 11
359.393487784
 21
184.2351094618
  0
LINE
  8
0
 62
7
  6
CONTINUOUS
 10
362.5184876648
 20
183.4691521063
 11
362.5184876648
 21
183.0861730709
  0
LINE
  8
0
 62
7
  6
CONTINUOUS
 10
363.2684876648
 20
182.9585135117
 11
363.2684876648
 21
183.4691521063
  0
LINE
  8
0
 62
7
  6
CONTINUOUS
 10
325.0684879032
 20
183.4691521063
 11
324.9434869496
 21
182.8308539524
  0
LINE
  8
0
 62
7
  6
CONTINUOUS
 10
329.8184869496
 20
180.2776625886
 11
329.9434879032
 21
180.9159603849
  0
LINE
  8
0
 62
7
  6
CONTINUOUS
 10
325.6934869496
 20
182.8308539524
 11
325.8184879032
 21
183.3414921894
  0
LINE
  8
0
 62
7
  6
CONTINUOUS
 10
329.1934879032
 20
180.9159603849
 11
329.0684869496
 21
180.4053221479
  0
LINE
  8
0
 62
7
  6
CONTINUOUS
 10
309.5684883801
 20
183.0861730709
 11
309.4434874264
 21
182.7031943932
  0
LINE
  8
0
 62
7
  6
CONTINUOUS
 10
310.1934874264
 20
182.5755348339
 11
310.3184883801
 21
182.9585135117
  0
LINE
  8
0
 62
7
  6
CONTINUOUS
 10
312.8184874264
 20
180.9159603849
 11
313.9434874264
 21
184.3627690211
  0
LINE
  8
0
 62
7
  6
CONTINUOUS
 10
312.1934883801
 20
178.8734072581
 11
312.6934879032
 21
180.4053221479
  0
LINE
  8
0
 62
7
  6
CONTINUOUS
 10
313.4434879032
 20
184.8734072581
 11
311.4434883801
 21
178.8734072581
  0
LINE
  8
0
 62
7
  6
CONTINUOUS
 10
265.1099557682
 20
269.5648965969
 11
264.4432950932
 21
269.3946838513
  0
LINE
  8
0
 62
7
  6
CONTINUOUS
 10
245.1101169201
 20
269.5648965969
 11
244.4434557682
 21
269.3946838513
  0
LINE
  8
0
 62
7
  6
CONTINUOUS
 10
262.4433111607
 20
275.1819180384
 11
263.1099718357
 21
275.3521307841
  0
LINE
  8
0
 62
7
  6
CONTINUOUS
 10
264.4432950932
 20
268.3734072581
 11
265.2766223675
 21
268.5436200186
  0
LINE
  8
0
 62
7
  6
CONTINUOUS
 10
244.4434557682
 20
268.3734072581
 11
245.2767825657
 21
268.5436200186
  0
LINE
  8
0
 62
7
  6
CONTINUOUS
 10
263.1099718357
 20
276.3734072581
 11
262.2766464687
 21
276.2031945124
  0
LINE
  8
0
 62
7
  6
CONTINUOUS
 10
459.9434879032
 20
268.5436200186
 11
460.7768218723
 21
268.3734072581
  0
LINE
  8
0
 62
7
  6
CONTINUOUS
 10
462.9434879032
 20
272.7989391222
 11
462.1101539341
 21
272.9691518679
  0
LINE
  8
0
 62
7
  6
CONTINUOUS
 10
448.2768213955
 20
276.2031945124
 11
447.4434879032
 21
276.3734072581
  0
LINE
  8
0
 62
7
  6
CONTINUOUS
 10
462.7768218723
 20
276.2031945124
 11
461.9434879032
 21
276.3734072581
  0
LINE
  8
0
 62
7
  6
CONTINUOUS
 10
460.7768218723
 20
269.3946838513
 11
460.1101539341
 21
269.5648965969
  0
LINE
  8
0
 62
7
  6
CONTINUOUS
 10
460.4434879032
 20
272.1180881396
 11
461.1101539341
 21
271.9478753939
  0
LINE
  8
0
 62
7
  6
CONTINUOUS
 10
462.1101539341
 20
271.9478753939
 11
462.7768218723
 21
271.7776626482
  0
LINE
  8
0
 62
7
  6
CONTINUOUS
 10
405.3184879032
 20
183.4691521063
 11
405.0684881416
 21
183.9797903433
  0
LINE
  8
0
 62
7
  6
CONTINUOUS
 10
412.0684879032
 20
180.2776625886
 11
412.3184883801
 21
179.7670242622
  0
LINE
  8
0
 62
7
  6
CONTINUOUS
 10
396.9434878436
 20
179.639364703
 11
395.1934879032
 21
184.8734072581
  0
LINE
  8
0
 62
7
  6
CONTINUOUS
 10
394.4434879032
 20
184.8734072581
 11
396.4434879628
 21
178.8734072581
  0
LINE
  8
0
 62
7
  6
CONTINUOUS
 10
363.6434876648
 20
184.8734072581
 11
363.6434876648
 21
178.8734072581
  0
LINE
  8
0
 62
7
  6
CONTINUOUS
 10
364.3934876648
 20
178.8734072581
 11
364.3934876648
 21
183.5968116656
  0
LINE
  8
0
 62
7
  6
CONTINUOUS
 10
368.8934883801
 20
183.5968116656
 11
368.8934883801
 21
178.8734072581
  0
LINE
  8
0
 62
7
  6
CONTINUOUS
 10
369.6434883801
 20
178.8734072581
 11
369.6434883801
 21
184.8734072581
  0
LINE
  8
0
 62
7
  6
CONTINUOUS
 10
325.3184869496
 20
183.9797903433
 11
325.0684879032
 21
183.4691521063
  0
LINE
  8
0
 62
7
  6
CONTINUOUS
 10
242.4434718357
 20
275.1819180384
 11
243.110133226
 21
275.3521307841
  0
LINE
  8
0
 62
7
  6
CONTINUOUS
 10
243.110133226
 20
276.3734072581
 11
242.2768065477
 21
276.2031945124
  0
LINE
  8
0
 62
7
  6
CONTINUOUS
 10
447.6101544109
 20
275.5223435297
 11
448.1101544109
 21
275.3521307841
  0
LINE
  8
0
 62
7
  6
CONTINUOUS
 10
461.1101539341
 20
272.9691518679
 11
460.6101539341
 21
273.1393646136
  0
LINE
  8
0
 62
7
  6
CONTINUOUS
 10
462.1101539341
 20
275.3521307841
 11
462.6101539341
 21
275.1819180384
  0
LINE
  8
0
 62
7
  6
CONTINUOUS
 10
418.1934874264
 20
183.5968116656
 11
419.9434879032
 21
178.8734072581
  0
LINE
  8
0
 62
7
  6
CONTINUOUS
 10
420.4434888569
 20
179.5117051437
 11
418.5684888569
 21
184.8734072581
  0
LINE
  8
0
 62
7
  6
CONTINUOUS
 10
401.3184881416
 20
180.4053221479
 11
401.1934879032
 21
180.9159603849
  0
LINE
  8
0
 62
7
  6
CONTINUOUS
 10
404.5684879032
 20
183.3414921894
 11
404.6934881416
 21
182.8308539524
  0
LINE
  8
0
 62
7
  6
CONTINUOUS
 10
400.4434879032
 20
180.9159603849
 11
400.5684881416
 21
180.2776625886
  0
LINE
  8
0
 62
7
  6
CONTINUOUS
 10
357.518487784
 20
183.0861730709
 11
357.3934879032
 21
182.7031943932
  0
LINE
  8
0
 62
7
  6
CONTINUOUS
 10
358.1434879032
 20
182.5755348339
 11
358.268487784
 21
182.9585135117
  0
LINE
  8
0
 62
7
  6
CONTINUOUS
 10
357.518487784
 20
180.4053221479
 11
357.3934879032
 21
180.0223434701
  0
LINE
  8
0
 62
7
  6
CONTINUOUS
 10
358.1434879032
 20
179.8946838215
 11
358.268487784
 21
180.2776625886
  0
LINE
  8
0
 62
7
  6
CONTINUOUS
 10
329.5684879032
 20
179.7670242622
 11
329.8184869496
 21
180.2776625886
  0
LINE
  8
0
 62
7
  6
CONTINUOUS
 10
325.8184879032
 20
183.3414921894
 11
326.0684869496
 21
183.7244712248
  0
LINE
  8
0
 62
7
  6
CONTINUOUS
 10
309.8184874264
 20
182.0648965969
 11
310.1934874264
 21
182.5755348339
  0
LINE
  8
AXES
 62
7
  6
CONTINUOUS
 10
311.9434879032
 20
318.3734072581
 11
410.9434879032
 21
318.3734072581
  0
LINE
  8
0
 62
7
  6
CONTINUOUS
 10
459.7768218723
 20
272.4585136309
 11
460.4434879032
 21
272.1180881396
  0
LINE
  8
0
 62
7
  6
CONTINUOUS
 10
463.6101539341
 20
272.4585136309
 11
462.9434879032
 21
272.7989391222
  0
LINE
  8
0
 62
7
  6
CONTINUOUS
 10
459.1101548878
 20
269.0542583003
 11
459.9434879032
 21
268.5436200186
  0
LINE
  8
0
 62
7
  6
CONTINUOUS
 10
412.8184879032
 20
180.4053221479
 11
412.6934883801
 21
180.9159603849
  0
LINE
  8
0
 62
7
  6
CONTINUOUS
 10
405.4434881416
 20
182.8308539524
 11
405.3184879032
 21
183.4691521063
  0
LINE
  8
0
 62
7
  6
CONTINUOUS
 10
411.9434883801
 20
180.9159603849
 11
412.0684879032
 21
180.2776625886
  0
LINE
  8
0
 62
7
  6
CONTINUOUS
 10
400.4434879032
 20
182.8308539524
 11
400.4434879032
 21
180.9159603849
  0
LINE
  8
0
 62
7
  6
CONTINUOUS
 10
401.1934879032
 20
180.9159603849
 11
401.1934879032
 21
182.8308539524
  0
LINE
  8
0
 62
7
  6
CONTINUOUS
 10
404.6934881416
 20
182.8308539524
 11
404.6934881416
 21
180.9159603849
  0
LINE
  8
0
 62
7
  6
CONTINUOUS
 10
405.4434881416
 20
180.9159603849
 11
405.4434881416
 21
182.8308539524
  0
LINE
  8
0
 62
7
  6
CONTINUOUS
 10
406.4434879032
 20
184.8734072581
 11
406.4434879032
 21
178.8734072581
  0
LINE
  8
0
 62
7
  6
CONTINUOUS
 10
407.1934879032
 20
179.639364703
 11
407.1934879032
 21
184.8734072581
  0
LINE
  8
0
 62
7
  6
CONTINUOUS
 10
362.5184876648
 20
183.0861730709
 11
362.3934881416
 21
182.7031943932
  0
LINE
  8
0
 62
7
  6
CONTINUOUS
 10
363.1434881416
 20
182.5755348339
 11
363.2684876648
 21
182.9585135117
  0
LINE
  8
0
 62
7
  6
CONTINUOUS
 10
368.5184883801
 20
184.8734072581
 11
366.6434883801
 21
179.5117051437
  0
LINE
  8
0
 62
7
  6
CONTINUOUS
 10
367.1434879032
 20
178.8734072581
 11
368.8934883801
 21
183.5968116656
  0
LINE
  8
0
 62
7
  6
CONTINUOUS
 10
329.0684869496
 20
180.4053221479
 11
328.8184879032
 21
180.0223434701
  0
LINE
  8
0
 62
7
  6
CONTINUOUS
 10
309.4434874264
 20
182.7031943932
 11
309.1934883801
 21
182.4478752747
  0
LINE
  8
0
 62
7
  6
CONTINUOUS
 10
460.6101539341
 20
273.1393646136
 11
460.1101539341
 21
273.4797901049
  0
LINE
  8
0
 62
7
  6
CONTINUOUS
 10
462.7768218723
 20
271.7776626482
 11
463.2768218723
 21
271.4372371569
  0
LINE
  8
0
 62
7
  6
CONTINUOUS
 10
448.9434879032
 20
275.6925562754
 11
448.2768213955
 21
276.2031945124
  0
LINE
  8
0
 62
7
  6
CONTINUOUS
 10
463.4434879032
 20
275.6925562754
 11
462.7768218723
 21
276.2031945124
  0
LINE
  8
0
 62
7
  6
CONTINUOUS
 10
448.1101544109
 20
275.3521307841
 11
448.4434879032
 21
275.0117052927
  0
LINE
  8
AXES
 62
7
  6
CONTINUOUS
 10
410.9434879032
 20
318.3734072581
 11
410.9434879032
 21
278.3734072581
  0
LINE
  8
0
 62
7
  6
CONTINUOUS
 10
410.9434879032
 20
178.8734072581
 11
410.9434879032
 21
179.639364703
  0
LINE
  8
0
 62
7
  6
CONTINUOUS
 10
411.9434883801
 20
184.8734072581
 11
411.9434883801
 21
180.9159603849
  0
LINE
  8
0
 62
7
  6
CONTINUOUS
 10
412.6934883801
 20
180.9159603849
 11
412.6934883801
 21
184.8734072581
  0
LINE
  8
0
 62
7
  6
CONTINUOUS
 10
415.6934883801
 20
184.8734072581
 11
415.6934883801
 21
180.9159603849
  0
LINE
  8
0
 62
7
  6
CONTINUOUS
 10
416.4434883801
 20
180.9159603849
 11
416.4434883801
 21
184.8734072581
  0
LINE
  8
0
 62
7
  6
CONTINUOUS
 10
417.4434874264
 20
184.8734072581
 11
417.4434874264
 21
178.8734072581
  0
LINE
  8
0
 62
7
  6
CONTINUOUS
 10
418.1934874264
 20
178.8734072581
 11
418.1934874264
 21
183.5968116656
  0
LINE
  8
0
 62
7
  6
CONTINUOUS
 10
422.6934888569
 20
183.5968116656
 11
422.6934888569
 21
178.8734072581
  0
LINE
  8
0
 62
7
  6
CONTINUOUS
 10
423.4434888569
 20
178.8734072581
 11
423.4434888569
 21
184.8734072581
  0
LINE
  8
0
 62
7
  6
CONTINUOUS
 10
424.4434879032
 20
184.8734072581
 11
424.4434879032
 21
178.8734072581
  0
LINE
  8
0
 62
7
  6
CONTINUOUS
 10
425.1934879032
 20
179.639364703
 11
425.1934879032
 21
181.6819179192
  0
LINE
  8
0
 62
7
  6
CONTINUOUS
 10
425.1934879032
 20
182.4478752747
 11
425.1934879032
 21
184.1074499026
  0
LINE
  8
0
 62
7
  6
CONTINUOUS
 10
400.5684881416
 20
183.4691521063
 11
400.4434879032
 21
182.8308539524
  0
LINE
  8
0
 62
7
  6
CONTINUOUS
 10
325.8184879032
 20
184.4904285803
 11
325.3184869496
 21
183.9797903433
  0
LINE
  8
0
 62
7
  6
CONTINUOUS
 10
329.0684869496
 20
179.2563859805
 11
329.5684879032
 21
179.7670242622
  0
LINE
  8
0
 62
7
  6
CONTINUOUS
 10
448.2768213955
 20
272.2883008852
 11
448.9434879032
 21
272.6287263766
  0
LINE
  8
0
 62
7
  6
CONTINUOUS
 10
460.4434879032
 20
276.2031945124
 11
459.7768218723
 21
275.8627690211
  0
LINE
  8
0
 62
7
  6
CONTINUOUS
 10
448.1101544109
 20
273.1393646136
 11
447.6101544109
 21
272.9691518679
  0
LINE
  8
0
 62
7
  6
CONTINUOUS
 10
460.6101539341
 20
275.1819180384
 11
461.1101539341
 21
275.3521307841
  0
LINE
  8
0
 62
7
  6
CONTINUOUS
 10
460.1101539341
 20
269.5648965969
 11
459.6101539341
 21
270.0755349531
  0
LINE
  8
0
 62
7
  6
CONTINUOUS
 10
459.1101548878
 20
273.1393646136
 11
459.7768218723
 21
272.4585136309
  0
LINE
  8
0
 62
7
  6
CONTINUOUS
 10
464.2768218723
 20
271.7776626482
 11
463.6101539341
 21
272.4585136309
  0
LINE
  8
0
 62
7
  6
CONTINUOUS
 10
462.6101539341
 20
275.1819180384
 11
462.9434879032
 21
274.8414925471
  0
LINE
  8
0
 62
7
  6
CONTINUOUS
 10
449.4434879032
 20
275.0117052927
 11
448.9434879032
 21
275.6925562754
  0
LINE
  8
0
 62
7
  6
CONTINUOUS
 10
428.4434869496
 20
181.6819179192
 11
428.4434869496
 21
182.4478752747
  0
LINE
  8
0
 62
7
  6
CONTINUOUS
 10
428.9434879032
 20
178.8734072581
 11
428.9434879032
 21
179.639364703
  0
LINE
  8
0
 62
7
  6
CONTINUOUS
 10
428.9434879032
 20
184.1074499026
 11
428.9434879032
 21
184.8734072581
  0
LINE
  8
0
 62
7
  6
CONTINUOUS
 10
405.3184879032
 20
180.2776625886
 11
405.4434881416
 21
180.9159603849
  0
LINE
  8
0
 62
7
  6
CONTINUOUS
 10
416.3184874264
 20
180.2776625886
 11
416.4434883801
 21
180.9159603849
  0
LINE
  8
0
 62
7
  6
CONTINUOUS
 10
401.1934879032
 20
182.8308539524
 11
401.3184881416
 21
183.3414921894
  0
LINE
  8
0
 62
7
  6
CONTINUOUS
 10
404.6934881416
 20
180.9159603849
 11
404.5684879032
 21
180.4053221479
  0
LINE
  8
0
 62
7
  6
CONTINUOUS
 10
415.6934883801
 20
180.9159603849
 11
415.5684874264
 21
180.4053221479
  0
LINE
  8
0
 62
7
  6
CONTINUOUS
 10
397.4434879032
 20
178.8734072581
 11
399.443487784
 21
184.8734072581
  0
LINE
  8
0
 62
7
  6
CONTINUOUS
 10
398.693487784
 20
184.8734072581
 11
396.9434878436
 21
179.639364703
  0
LINE
  8
0
 62
7
  6
CONTINUOUS
 10
357.7684879032
 20
182.0648965969
 11
358.1434879032
 21
182.5755348339
  0
LINE
  8
0
 62
7
  6
CONTINUOUS
 10
357.7684879032
 20
179.3840455398
 11
358.1434879032
 21
179.8946838215
  0
LINE
  8
0
 62
7
  6
CONTINUOUS
 10
362.7684881416
 20
182.0648965969
 11
363.1434881416
 21
182.5755348339
  0
LINE
  8
0
 62
7
  6
CONTINUOUS
 10
357.3934879032
 20
182.7031943932
 11
357.143487784
 21
182.4478752747
  0
LINE
  8
0
 62
7
  6
CONTINUOUS
 10
448.4434879032
 20
273.4797901049
 11
448.1101544109
 21
273.1393646136
  0
LINE
  8
0
 62
7
  6
CONTINUOUS
 10
357.3934879032
 20
180.0223434701
 11
357.143487784
 21
179.7670242622
  0
LINE
  8
0
 62
7
  6
CONTINUOUS
 10
326.0684869496
 20
183.7244712248
 11
326.4434869496
 21
183.9797903433
  0
LINE
  8
0
 62
7
  6
CONTINUOUS
 10
460.1101539341
 20
274.8414925471
 11
460.6101539341
 21
275.1819180384
  0
LINE
  8
0
 62
7
  6
CONTINUOUS
 10
328.8184879032
 20
180.0223434701
 11
328.4434879032
 21
179.7670242622
  0
LINE
  8
0
 62
7
  6
CONTINUOUS
 10
463.2768218723
 20
269.9053222075
 11
462.7768218723
 21
269.5648965969
  0
LINE
  8
0
 62
7
  6
CONTINUOUS
 10
462.9434879032
 20
268.5436200186
 11
463.6101539341
 21
268.8840455547
  0
LINE
  8
0
 62
7
  6
CONTINUOUS
 10
309.3184879032
 20
181.8095774784
 11
309.8184874264
 21
182.0648965969
  0
LINE
  8
0
 62
7
  6
CONTINUOUS
 10
463.9434879032
 20
275.0117052927
 11
463.4434879032
 21
275.6925562754
  0
LINE
  8
0
 62
7
  6
CONTINUOUS
 10
463.2768218723
 20
271.4372371569
 11
463.6101539341
 21
270.9265986815
  0
LINE
  8
0
 62
7
  6
CONTINUOUS
 10
458.6101548878
 20
269.9053222075
 11
459.1101548878
 21
269.0542583003
  0
LINE
  8
0
 62
7
  6
CONTINUOUS
 10
464.6101539341
 20
271.0968114271
 11
464.2768218723
 21
271.7776626482
  0
LINE
  8
0
 62
7
  6
CONTINUOUS
 10
462.9434879032
 20
274.8414925471
 11
463.1101539341
 21
274.5010670557
  0
LINE
  8
0
 62
7
  6
CONTINUOUS
 10
449.7768213955
 20
268.3734072581
 11
448.2768213955
 21
272.2883008852
  0
LINE
  8
0
 62
7
  6
CONTINUOUS
 10
447.2768211571
 20
271.9478753939
 11
448.6101544109
 21
268.3734072581
  0
LINE
  8
0
 62
7
  6
CONTINUOUS
 10
448.4434879032
 20
275.0117052927
 11
448.6101544109
 21
274.5010670557
  0
LINE
  8
0
 62
7
  6
CONTINUOUS
 10
449.6101544109
 20
274.5010670557
 11
449.4434879032
 21
275.0117052927
  0
LINE
  8
0
 62
7
  6
CONTINUOUS
 10
443.4434879032
 20
276.3734072581
 11
443.4434879032
 21
268.3734072581
  0
LINE
  8
0
 62
7
  6
CONTINUOUS
 10
444.4434879032
 20
268.3734072581
 11
444.4434879032
 21
271.9478753939
  0
LINE
  8
0
 62
7
  6
CONTINUOUS
 10
444.4434879032
 20
272.9691518679
 11
444.4434879032
 21
275.5223435297
  0
LINE
  8
0
 62
7
  6
CONTINUOUS
 10
448.6101544109
 20
274.5010670557
 11
448.6101544109
 21
273.9904283419
  0
LINE
  8
0
 62
7
  6
CONTINUOUS
 10
449.6101544109
 20
273.8202155962
 11
449.6101544109
 21
274.5010670557
  0
LINE
  8
0
 62
7
  6
CONTINUOUS
 10
451.1101544109
 20
276.3734072581
 11
451.1101544109
 21
268.3734072581
  0
LINE
  8
0
 62
7
  6
CONTINUOUS
 10
452.1101548878
 20
269.3946838513
 11
452.1101548878
 21
272.1180881396
  0
LINE
  8
0
 62
7
  6
CONTINUOUS
 10
452.1101548878
 20
273.1393646136
 11
452.1101548878
 21
275.3521307841
  0
LINE
  8
0
 62
7
  6
CONTINUOUS
 10
456.4434879032
 20
272.1180881396
 11
456.4434879032
 21
273.1393646136
  0
LINE
  8
0
 62
7
  6
CONTINUOUS
 10
457.1101548878
 20
268.3734072581
 11
457.1101548878
 21
269.3946838513
  0
LINE
  8
0
 62
7
  6
CONTINUOUS
 10
457.1101548878
 20
275.3521307841
 11
457.1101548878
 21
276.3734072581
  0
LINE
  8
0
 62
7
  6
CONTINUOUS
 10
448.6101544109
 20
273.9904283419
 11
448.4434879032
 21
273.4797901049
  0
LINE
  8
0
 62
7
  6
CONTINUOUS
 10
449.4434879032
 20
273.3095773592
 11
449.6101544109
 21
273.8202155962
  0
LINE
  8
0
 62
7
  6
CONTINUOUS
 10
422.3184888569
 20
184.8734072581
 11
420.4434888569
 21
179.5117051437
  0
LINE
  8
0
 62
7
  6
CONTINUOUS
 10
400.8184879032
 20
183.9797903433
 11
400.5684881416
 21
183.4691521063
  0
LINE
  8
0
 62
7
  6
CONTINUOUS
 10
405.0684881416
 20
179.7670242622
 11
405.3184879032
 21
180.2776625886
  0
LINE
  8
0
 62
7
  6
CONTINUOUS
 10
401.3184881416
 20
183.3414921894
 11
401.5684879032
 21
183.7244712248
  0
LINE
  8
0
 62
7
  6
CONTINUOUS
 10
448.9434879032
 20
272.6287263766
 11
449.4434879032
 21
273.3095773592
  0
LINE
  8
0
 62
7
  6
CONTINUOUS
 10
362.3934881416
 20
182.7031943932
 11
362.1434876648
 21
182.4478752747
  0
LINE
  8
0
 62
7
  6
CONTINUOUS
 10
459.7768218723
 20
275.8627690211
 11
459.1101548878
 21
275.1819180384
  0
LINE
  8
0
 62
7
  6
CONTINUOUS
 10
463.6101539341
 20
268.8840455547
 11
464.2768218723
 21
269.5648965969
  0
LINE
  8
0
 62
7
  6
CONTINUOUS
 10
357.2684880224
 20
179.0010668285
 11
357.7684879032
 21
179.3840455398
  0
LINE
  8
0
 62
7
  6
CONTINUOUS
 10
362.2684879032
 20
181.6819179192
 11
362.7684881416
 21
182.0648965969
  0
LINE
  8
0
 62
7
  6
CONTINUOUS
 10
326.3184888569
 20
184.7457476988
 11
325.8184879032
 21
184.4904285803
  0
LINE
  8
0
 62
7
  6
CONTINUOUS
 10
328.5684888569
 20
179.0010668285
 11
329.0684869496
 21
179.2563859805
  0
LINE
  8
0
 62
7
  6
CONTINUOUS
 10
309.1934883801
 20
182.4478752747
 11
308.8184883801
 21
182.3202157154
  0
LINE
  8
0
 62
7
  6
CONTINUOUS
 10
459.6101539341
 20
270.0755349531
 11
459.4434879032
 21
270.5861731901
  0
LINE
  8
0
 62
7
  6
CONTINUOUS
 10
460.1101539341
 20
273.4797901049
 11
459.9434879032
 21
273.9904283419
  0
LINE
  8
0
 62
7
  6
CONTINUOUS
 10
464.1101539341
 20
274.5010670557
 11
463.9434879032
 21
275.0117052927
  0
LINE
  8
0
 62
7
  6
CONTINUOUS
 10
458.4434879032
 20
270.5861731901
 11
458.6101548878
 21
269.9053222075
  0
LINE
  8
0
 62
7
  6
CONTINUOUS
 10
458.9434879032
 20
273.8202155962
 11
459.1101548878
 21
273.1393646136
  0
LINE
  8
0
 62
7
  6
CONTINUOUS
 10
458.9434879032
 20
274.5010670557
 11
458.9434879032
 21
273.8202155962
  0
LINE
  8
0
 62
7
  6
CONTINUOUS
 10
459.9434879032
 20
273.9904283419
 11
459.9434879032
 21
274.3308538332
  0
LINE
  8
0
 62
7
  6
CONTINUOUS
 10
463.6101539341
 20
270.9265986815
 11
463.6101539341
 21
270.4159604445
  0
LINE
  8
0
 62
7
  6
CONTINUOUS
 10
464.6101539341
 20
270.2457476988
 11
464.6101539341
 21
271.0968114271
  0
LINE
  8
0
 62
7
  6
CONTINUOUS
 10
465.9434879032
 20
276.3734072581
 11
465.9434879032
 21
268.3734072581
  0
LINE
  8
0
 62
7
  6
CONTINUOUS
 10
466.9434879032
 20
269.3946838513
 11
466.9434879032
 21
272.1180881396
  0
LINE
  8
0
 62
7
  6
CONTINUOUS
 10
466.9434879032
 20
273.1393646136
 11
466.9434879032
 21
275.3521307841
  0
LINE
  8
0
 62
7
  6
CONTINUOUS
 10
471.2768218723
 20
272.1180881396
 11
471.2768218723
 21
273.1393646136
  0
LINE
  8
0
 62
7
  6
CONTINUOUS
 10
471.9434879032
 20
268.3734072581
 11
471.9434879032
 21
269.3946838513
  0
LINE
  8
0
 62
7
  6
CONTINUOUS
 10
471.9434879032
 20
275.3521307841
 11
471.9434879032
 21
276.3734072581
  0
LINE
  8
0
 62
7
  6
CONTINUOUS
 10
473.2768218723
 20
276.3734072581
 11
473.2768218723
 21
275.5223435297
  0
LINE
  8
0
 62
7
  6
CONTINUOUS
 10
459.1101548878
 20
275.1819180384
 11
458.9434879032
 21
274.5010670557
  0
LINE
  8
0
 62
7
  6
CONTINUOUS
 10
459.9434879032
 20
274.3308538332
 11
460.1101539341
 21
274.8414925471
  0
LINE
  8
0
 62
7
  6
CONTINUOUS
 10
420.9434869496
 20
178.8734072581
 11
422.6934888569
 21
183.5968116656
  0
LINE
  8
0
 62
7
  6
CONTINUOUS
 10
416.0684883801
 20
179.7670242622
 11
416.3184874264
 21
180.2776625886
  0
LINE
  8
0
 62
7
  6
CONTINUOUS
 10
464.2768218723
 20
269.5648965969
 11
464.6101539341
 21
270.2457476988
  0
LINE
  8
0
 62
7
  6
CONTINUOUS
 10
404.5684879032
 20
180.4053221479
 11
404.3184881416
 21
180.0223434701
  0
LINE
  8
0
 62
7
  6
CONTINUOUS
 10
463.6101539341
 20
270.4159604445
 11
463.2768218723
 21
269.9053222075
  0
LINE
  8
0
 62
7
  6
CONTINUOUS
 10
415.5684874264
 20
180.4053221479
 11
415.3184883801
 21
180.0223434701
  0
LINE
  8
0
 62
7
  6
CONTINUOUS
 10
401.3184881416
 20
184.4904285803
 11
400.8184879032
 21
183.9797903433
  0
LINE
  8
0
 62
7
  6
CONTINUOUS
 10
357.518487784
 20
181.9372370377
 11
357.7684879032
 21
182.0648965969
  0
LINE
  8
0
 62
7
  6
CONTINUOUS
 10
357.143487784
 20
182.4478752747
 11
356.768487784
 21
182.3202157154
  0
LINE
  8
0
 62
7
  6
CONTINUOUS
 10
362.1434876648
 20
182.4478752747
 11
361.7684876648
 21
182.3202157154
  0
LINE
  8
0
 62
7
  6
CONTINUOUS
 10
357.143487784
 20
179.7670242622
 11
356.768487784
 21
179.639364703
  0
LINE
  8
0
 62
7
  6
CONTINUOUS
 10
475.9434879032
 20
275.5223435297
 11
475.9434879032
 21
268.3734072581
  0
LINE
  8
0
 62
7
  6
CONTINUOUS
 10
476.9434879032
 20
268.3734072581
 11
476.9434879032
 21
275.5223435297
  0
LINE
  8
0
 62
7
  6
CONTINUOUS
 10
479.6101558415
 20
275.5223435297
 11
479.6101558415
 21
276.3734072581
  0
LINE
  8
AXES
 62
7
  6
CONTINUOUS
 10
486.3934879032
 20
165.2799336269
 11
486.3934879032
 21
174.4668808892
  0
LINE
  8
0
 62
7
  6
CONTINUOUS
 10
404.5684879032
 20
179.2563859805
 11
405.0684881416
 21
179.7670242622
  0
LINE
  8
0
 62
7
  6
CONTINUOUS
 10
415.5684874264
 20
179.2563859805
 11
416.0684883801
 21
179.7670242622
  0
LINE
  8
0
 62
7
  6
CONTINUOUS
 10
401.5684879032
 20
183.7244712248
 11
401.9434879032
 21
183.9797903433
  0
LINE
  8
0
 62
7
  6
CONTINUOUS
 10
404.3184881416
 20
180.0223434701
 11
403.9434881416
 21
179.7670242622
  0
LINE
  8
0
 62
7
  6
CONTINUOUS
 10
415.3184883801
 20
180.0223434701
 11
414.9434883801
 21
179.7670242622
  0
LINE
  8
0
 62
7
  6
CONTINUOUS
 10
401.8184876648
 20
184.7457476988
 11
401.3184881416
 21
184.4904285803
  0
LINE
  8
0
 62
7
  6
CONTINUOUS
 10
404.0684876648
 20
179.0010668285
 11
404.5684879032
 21
179.2563859805
  0
LINE
  8
0
 62
7
  6
CONTINUOUS
 10
415.0684879032
 20
179.0010668285
 11
415.5684874264
 21
179.2563859805
  0
LINE
  8
AXES
 62
7
  6
CONTINUOUS
 10
506.4934879032
 20
174.4668808892
 11
506.4934879032
 21
165.2799336269
  0
LINE
  8
0
 62
7
  6
CONTINUOUS
 10
540.9434879032
 20
452.8734072581
 11
181.9434879032
 21
452.8734072581
  0
LINE
  8
0
 62
7
  6
CONTINUOUS
 10
540.9434879032
 20
143.8734072581
 11
540.9434879032
 21
452.8734072581
  0
CIRCLE
  8
AXES
 62
7
  6
CONTINUOUS
 10
461.4434879032
 20
298.3734072581
 40
12.5
  0
CIRCLE
  8
AXES
 62
7
  6
CONTINUOUS
 10
261.4434879032
 20
298.3734072581
 40
12.5
  0
ARC
  8
AXES
 62
7
  6
CONTINUOUS
 10
496.4434879032
 20
169.8734072581
 40
11.05
 50
294.5633417387
 51
335.4366582613
  0
ARC
  8
AXES
 62
7
  6
CONTINUOUS
 10
496.4434879032
 20
169.8734072581
 40
11.05
 50
204.5633417387
 51
245.4366582613
  0
ARC
  8
AXES
 62
7
  6
CONTINUOUS
 10
496.4434879032
 20
169.8734072581
 40
11.05
 50
114.5633417387
 51
155.4366582613
  0
ARC
  8
AXES
 62
7
  6
CONTINUOUS
 10
496.4434879032
 20
169.8734072581
 40
11.05
 50
24.5633417387
 51
65.4366582613
  0
ARC
  8
AXES
 62
7
  6
CONTINUOUS
 10
226.4434879032
 20
169.8734072581
 40
11.05
 50
294.5633417387
 51
335.4366582613
  0
ARC
  8
AXES
 62
7
  6
CONTINUOUS
 10
226.4434879032
 20
169.8734072581
 40
11.05
 50
204.5633417387
 51
245.4366582613
  0
ARC
  8
AXES
 62
7
  6
CONTINUOUS
 10
226.4434879032
 20
169.8734072581
 40
11.05
 50
114.5633417387
 51
155.4366582613
  0
ARC
  8
AXES
 62
7
  6
CONTINUOUS
 10
226.4434879032
 20
169.8734072581
 40
11.05
 50
24.5633417387
 51
65.4366582613
  0
CIRCLE
  8
AXES
 62
7
  6
CONTINUOUS
 10
411.4434879032
 20
203.8734072581
 40
5.0
  0
CIRCLE
  8
AXES
 62
7
  6
CONTINUOUS
 10
361.4434879032
 20
203.8734072581
 40
5.0
  0
CIRCLE
  8
AXES
 62
7
  6
CONTINUOUS
 10
311.4434879032
 20
203.8734072581
 40
5.0
  0
CIRCLE
  8
AXES
 62
7
  6
CONTINUOUS
 10
226.4434879032
 20
438.3734072581
 40
2.25
  0
CIRCLE
  8
AXES
 62
7
  6
CONTINUOUS
 10
251.4434879032
 20
438.3734072581
 40
2.25
  0
CIRCLE
  8
AXES
 62
7
  6
CONTINUOUS
 10
471.4434879032
 20
438.3734072581
 40
2.25
  0
CIRCLE
  8
AXES
 62
7
  6
CONTINUOUS
 10
496.4434879032
 20
438.3734072581
 40
2.25
  0
CIRCLE
  8
AXES
 62
7
  6
CONTINUOUS
 10
407.9434879032
 20
270.8734072581
 40
1.6
  0
CIRCLE
  8
AXES
 62
7
  6
CONTINUOUS
 10
407.9434879032
 20
325.8734072581
 40
1.6
  0
CIRCLE
  8
AXES
 62
7
  6
CONTINUOUS
 10
314.9434879032
 20
325.8734072581
 40
1.6
  0
CIRCLE
  8
AXES
 62
7
  6
CONTINUOUS
 10
314.9434879032
 20
270.8734072581
 40
1.6
  0
ENDSEC
  0
EOF
