G04 Layer_Color=32896*
%FSLAX44Y44*%
%MOMM*%
G71*
G01*
G75*
%ADD17C,0.2540*%
%ADD18C,0.1000*%
%ADD37C,0.2500*%
%ADD38C,0.2032*%
%ADD39C,0.2000*%
%ADD57C,0.1270*%
D17*
X205000Y735000D02*
X235000D01*
Y715000D02*
Y735000D01*
X205000Y715000D02*
X235000D01*
X205000Y665000D02*
X235000D01*
Y685000D01*
X205000D02*
X235000D01*
X205000Y650000D02*
Y750000D01*
X315000D01*
Y650000D02*
Y750000D01*
X205000Y650000D02*
X315000D01*
X205000Y615000D02*
X235000D01*
Y595000D02*
Y615000D01*
X205000Y595000D02*
X235000D01*
X205000Y545000D02*
X235000D01*
Y565000D01*
X205000D02*
X235000D01*
X205000Y530000D02*
Y630000D01*
X315000D01*
Y530000D02*
Y630000D01*
X205000Y530000D02*
X315000D01*
X1145000Y885000D02*
X1175000D01*
X1145000D02*
Y905000D01*
X1175000D01*
X1145000Y955000D02*
X1175000D01*
X1145000Y935000D02*
Y955000D01*
Y935000D02*
X1175000D01*
Y870000D02*
Y970000D01*
X1065000Y870000D02*
X1175000D01*
X1065000D02*
Y970000D01*
X1175000D01*
X1145000Y1245000D02*
X1175000D01*
X1145000D02*
Y1265000D01*
X1175000D01*
X1145000Y1315000D02*
X1175000D01*
X1145000Y1295000D02*
Y1315000D01*
Y1295000D02*
X1175000D01*
Y1230000D02*
Y1330000D01*
X1065000Y1230000D02*
X1175000D01*
X1065000D02*
Y1330000D01*
X1175000D01*
X1145000Y685000D02*
X1175000D01*
X1145000D02*
Y705000D01*
X1175000D01*
X1145000Y755000D02*
X1175000D01*
X1145000Y735000D02*
Y755000D01*
Y735000D02*
X1175000D01*
Y670000D02*
Y770000D01*
X1065000Y670000D02*
X1175000D01*
X1065000D02*
Y770000D01*
X1175000D01*
X1145000Y565000D02*
X1175000D01*
X1145000D02*
Y585000D01*
X1175000D01*
X1145000Y635000D02*
X1175000D01*
X1145000Y615000D02*
Y635000D01*
Y615000D02*
X1175000D01*
Y550000D02*
Y650000D01*
X1065000Y550000D02*
X1175000D01*
X1065000D02*
Y650000D01*
X1175000D01*
X1145000Y445000D02*
X1175000D01*
X1145000D02*
Y465000D01*
X1175000D01*
X1145000Y515000D02*
X1175000D01*
X1145000Y495000D02*
Y515000D01*
Y495000D02*
X1175000D01*
Y430000D02*
Y530000D01*
X1065000Y430000D02*
X1175000D01*
X1065000D02*
Y530000D01*
X1175000D01*
X1145000Y1125000D02*
X1175000D01*
X1145000D02*
Y1145000D01*
X1175000D01*
X1145000Y1195000D02*
X1175000D01*
X1145000Y1175000D02*
Y1195000D01*
Y1175000D02*
X1175000D01*
Y1110000D02*
Y1210000D01*
X1065000Y1110000D02*
X1175000D01*
X1065000D02*
Y1210000D01*
X1175000D01*
X1145000Y1005000D02*
X1175000D01*
X1145000D02*
Y1025000D01*
X1175000D01*
X1145000Y1075000D02*
X1175000D01*
X1145000Y1055000D02*
Y1075000D01*
Y1055000D02*
X1175000D01*
Y990000D02*
Y1090000D01*
X1065000Y990000D02*
X1175000D01*
X1065000D02*
Y1090000D01*
X1175000D01*
X402460Y697153D02*
Y681918D01*
X394842D01*
X392303Y684457D01*
Y686997D01*
X394842Y689536D01*
X402460D01*
X394842D01*
X392303Y692075D01*
Y694614D01*
X394842Y697153D01*
X402460D01*
X384686Y694614D02*
Y692075D01*
X387225D01*
X382147D01*
X384686D01*
Y684457D01*
X382147Y681918D01*
X374529D02*
Y692075D01*
X366912D01*
X364372Y689536D01*
Y681918D01*
X402460Y657540D02*
Y672775D01*
X394842D01*
X392303Y670236D01*
Y665158D01*
X394842Y662618D01*
X402460D01*
X397382D02*
X392303Y657540D01*
X379607D02*
X384686D01*
X387225Y660079D01*
Y665158D01*
X384686Y667697D01*
X379607D01*
X377068Y665158D01*
Y662618D01*
X387225D01*
X371990Y657540D02*
X364372D01*
X361833Y660079D01*
X364372Y662618D01*
X369451D01*
X371990Y665158D01*
X369451Y667697D01*
X361833D01*
X349137Y657540D02*
X354216D01*
X356755Y660079D01*
Y665158D01*
X354216Y667697D01*
X349137D01*
X346598Y665158D01*
Y662618D01*
X356755D01*
X338980Y670236D02*
Y667697D01*
X341520D01*
X336441D01*
X338980D01*
Y660079D01*
X336441Y657540D01*
X1017460Y1387153D02*
X1007303D01*
X1012382D01*
Y1371918D01*
X999686D02*
X994607D01*
X992068Y1374457D01*
Y1379536D01*
X994607Y1382075D01*
X999686D01*
X1002225Y1379536D01*
Y1374457D01*
X999686Y1371918D01*
X969216Y1384614D02*
Y1382075D01*
X971755D01*
X966676D01*
X969216D01*
Y1374457D01*
X966676Y1371918D01*
X959059Y1387153D02*
Y1371918D01*
Y1379536D01*
X956520Y1382075D01*
X951441D01*
X948902Y1379536D01*
Y1371918D01*
X936206D02*
X941285D01*
X943824Y1374457D01*
Y1379536D01*
X941285Y1382075D01*
X936206D01*
X933667Y1379536D01*
Y1376996D01*
X943824D01*
X903197Y1387153D02*
Y1371918D01*
X910815D01*
X913354Y1374457D01*
Y1379536D01*
X910815Y1382075D01*
X903197D01*
X898119D02*
Y1371918D01*
Y1376996D01*
X895579Y1379536D01*
X893040Y1382075D01*
X890501D01*
X882884Y1371918D02*
X877805D01*
X880344D01*
Y1382075D01*
X882884D01*
X870188D02*
X865109Y1371918D01*
X860031Y1382075D01*
X847335Y1371918D02*
X852413D01*
X854953Y1374457D01*
Y1379536D01*
X852413Y1382075D01*
X847335D01*
X844796Y1379536D01*
Y1376996D01*
X854953D01*
X839717Y1382075D02*
Y1371918D01*
Y1376996D01*
X837178Y1379536D01*
X834639Y1382075D01*
X832100D01*
X1017460Y1362775D02*
Y1347540D01*
X1007303D01*
X992068Y1362775D02*
X1002225D01*
Y1347540D01*
X992068D01*
X1002225Y1355157D02*
X997147D01*
X976833Y1360236D02*
X979372Y1362775D01*
X984451D01*
X986990Y1360236D01*
Y1350079D01*
X984451Y1347540D01*
X979372D01*
X976833Y1350079D01*
X971755Y1347540D02*
Y1362775D01*
X964137D01*
X961598Y1360236D01*
Y1355157D01*
X964137Y1352618D01*
X971755D01*
X956520Y1347540D02*
Y1357697D01*
X951441Y1362775D01*
X946363Y1357697D01*
Y1347540D01*
Y1355157D01*
X956520D01*
X941285Y1347540D02*
Y1362775D01*
X933667D01*
X931128Y1360236D01*
Y1355157D01*
X933667Y1352618D01*
X941285D01*
X402460Y577153D02*
Y561918D01*
X394842D01*
X392303Y564457D01*
Y566996D01*
X394842Y569536D01*
X402460D01*
X394842D01*
X392303Y572075D01*
Y574614D01*
X394842Y577153D01*
X402460D01*
X384686Y574614D02*
Y572075D01*
X387225D01*
X382147D01*
X384686D01*
Y564457D01*
X382147Y561918D01*
X374529D02*
Y572075D01*
X366912D01*
X364372Y569536D01*
Y561918D01*
X394842Y552775D02*
X399921D01*
X402460Y550236D01*
Y540079D01*
X399921Y537540D01*
X394842D01*
X392303Y540079D01*
Y550236D01*
X394842Y552775D01*
X387225Y537540D02*
Y552775D01*
X377068Y537540D01*
Y552775D01*
X371990Y545158D02*
X361833D01*
X349137Y552775D02*
X354216D01*
X356755Y550236D01*
Y540079D01*
X354216Y537540D01*
X349137D01*
X346598Y540079D01*
Y550236D01*
X349137Y552775D01*
X331363D02*
X341520D01*
Y545158D01*
X336441D01*
X341520D01*
Y537540D01*
X316128Y552775D02*
X326285D01*
Y545158D01*
X321206D01*
X326285D01*
Y537540D01*
X672000Y1085235D02*
Y1072539D01*
X669461Y1070000D01*
X664382D01*
X661843Y1072539D01*
Y1085235D01*
X656765Y1082696D02*
X654226Y1085235D01*
X649147D01*
X646608Y1082696D01*
Y1080157D01*
X649147Y1077617D01*
X651687D01*
X649147D01*
X646608Y1075078D01*
Y1072539D01*
X649147Y1070000D01*
X654226D01*
X656765Y1072539D01*
X420374Y1186941D02*
Y1174245D01*
X417835Y1171706D01*
X412757D01*
X410217Y1174245D01*
Y1186941D01*
X397521Y1171706D02*
Y1186941D01*
X405139Y1179324D01*
X394982D01*
X270000Y1070000D02*
Y1085235D01*
X262383D01*
X259843Y1082696D01*
Y1077618D01*
X262383Y1075078D01*
X270000D01*
X264922D02*
X259843Y1070000D01*
X244608D02*
X254765D01*
X244608Y1080157D01*
Y1082696D01*
X247147Y1085235D01*
X252226D01*
X254765Y1082696D01*
X229373Y1070000D02*
X239530D01*
X229373Y1080157D01*
Y1082696D01*
X231912Y1085235D01*
X236991D01*
X239530Y1082696D01*
X265000Y1162500D02*
Y1177735D01*
X257382D01*
X254843Y1175196D01*
Y1170117D01*
X257382Y1167578D01*
X265000D01*
X259922D02*
X254843Y1162500D01*
X239608D02*
X249765D01*
X239608Y1172657D01*
Y1175196D01*
X242147Y1177735D01*
X247226D01*
X249765Y1175196D01*
X234530Y1162500D02*
X229452D01*
X231991D01*
Y1177735D01*
X234530Y1175196D01*
X265000Y1205000D02*
Y1220235D01*
X257383D01*
X254843Y1217696D01*
Y1212618D01*
X257383Y1210078D01*
X265000D01*
X259922D02*
X254843Y1205000D01*
X239608D02*
X249765D01*
X239608Y1215157D01*
Y1217696D01*
X242147Y1220235D01*
X247226D01*
X249765Y1217696D01*
X234530D02*
X231991Y1220235D01*
X226912D01*
X224373Y1217696D01*
Y1207539D01*
X226912Y1205000D01*
X231991D01*
X234530Y1207539D01*
Y1217696D01*
X1102500Y350000D02*
X1087265D01*
Y342383D01*
X1089804Y339843D01*
X1094883D01*
X1097422Y342383D01*
Y350000D01*
Y344922D02*
X1102500Y339843D01*
Y334765D02*
Y329687D01*
Y332226D01*
X1087265D01*
X1089804Y334765D01*
X1099961Y322069D02*
X1102500Y319530D01*
Y314452D01*
X1099961Y311912D01*
X1089804D01*
X1087265Y314452D01*
Y319530D01*
X1089804Y322069D01*
X1092343D01*
X1094883Y319530D01*
Y311912D01*
X1127500Y350000D02*
X1112265D01*
Y342383D01*
X1114804Y339843D01*
X1119883D01*
X1122422Y342383D01*
Y350000D01*
Y344922D02*
X1127500Y339843D01*
Y334765D02*
Y329687D01*
Y332226D01*
X1112265D01*
X1114804Y334765D01*
Y322069D02*
X1112265Y319530D01*
Y314452D01*
X1114804Y311912D01*
X1117343D01*
X1119883Y314452D01*
X1122422Y311912D01*
X1124961D01*
X1127500Y314452D01*
Y319530D01*
X1124961Y322069D01*
X1122422D01*
X1119883Y319530D01*
X1117343Y322069D01*
X1114804D01*
X1119883Y319530D02*
Y314452D01*
X300000Y1115000D02*
Y1130235D01*
X292383D01*
X289843Y1127696D01*
Y1122618D01*
X292383Y1120078D01*
X300000D01*
X294922D02*
X289843Y1115000D01*
X284765D02*
X279687D01*
X282226D01*
Y1130235D01*
X284765Y1127696D01*
X272069Y1130235D02*
X261912D01*
Y1127696D01*
X272069Y1117539D01*
Y1115000D01*
X310000Y1162500D02*
Y1177735D01*
X302383D01*
X299843Y1175196D01*
Y1170117D01*
X302383Y1167578D01*
X310000D01*
X304922D02*
X299843Y1162500D01*
X294765D02*
X289687D01*
X292226D01*
Y1177735D01*
X294765Y1175196D01*
X271912Y1177735D02*
X276991Y1175196D01*
X282069Y1170117D01*
Y1165039D01*
X279530Y1162500D01*
X274452D01*
X271912Y1165039D01*
Y1167578D01*
X274452Y1170117D01*
X282069D01*
X310000Y1205000D02*
Y1220235D01*
X302383D01*
X299843Y1217696D01*
Y1212618D01*
X302383Y1210078D01*
X310000D01*
X304922D02*
X299843Y1205000D01*
X294765D02*
X289687D01*
X292226D01*
Y1220235D01*
X294765Y1217696D01*
X271912Y1220235D02*
X282069D01*
Y1212618D01*
X276991Y1215157D01*
X274452D01*
X271912Y1212618D01*
Y1207539D01*
X274452Y1205000D01*
X279530D01*
X282069Y1207539D01*
X340000Y1012500D02*
Y1027735D01*
X332383D01*
X329843Y1025196D01*
Y1020118D01*
X332383Y1017578D01*
X340000D01*
X334922D02*
X329843Y1012500D01*
X324765D02*
X319687D01*
X322226D01*
Y1027735D01*
X324765Y1025196D01*
X304452Y1012500D02*
Y1027735D01*
X312069Y1020118D01*
X301912D01*
X390000Y1012500D02*
Y1027735D01*
X382383D01*
X379843Y1025196D01*
Y1020118D01*
X382383Y1017578D01*
X390000D01*
X384922D02*
X379843Y1012500D01*
X374765D02*
X369687D01*
X372226D01*
Y1027735D01*
X374765Y1025196D01*
X362069D02*
X359530Y1027735D01*
X354451D01*
X351912Y1025196D01*
Y1022657D01*
X354451Y1020118D01*
X356991D01*
X354451D01*
X351912Y1017578D01*
Y1015039D01*
X354451Y1012500D01*
X359530D01*
X362069Y1015039D01*
X373000Y937000D02*
X357765D01*
Y929382D01*
X360304Y926843D01*
X365382D01*
X367922Y929382D01*
Y937000D01*
Y931922D02*
X373000Y926843D01*
Y921765D02*
Y916687D01*
Y919226D01*
X357765D01*
X360304Y921765D01*
X373000Y898912D02*
Y909069D01*
X362843Y898912D01*
X360304D01*
X357765Y901451D01*
Y906530D01*
X360304Y909069D01*
X338000Y937000D02*
X322765D01*
Y929382D01*
X325304Y926843D01*
X330382D01*
X332922Y929382D01*
Y937000D01*
Y931922D02*
X338000Y926843D01*
Y921765D02*
Y916687D01*
Y919226D01*
X322765D01*
X325304Y921765D01*
X338000Y909069D02*
Y903991D01*
Y906530D01*
X322765D01*
X325304Y909069D01*
X480000Y1195000D02*
Y1210235D01*
X472383D01*
X469843Y1207696D01*
Y1202617D01*
X472383Y1200078D01*
X480000D01*
X474922D02*
X469843Y1195000D01*
X464765D02*
X459687D01*
X462226D01*
Y1210235D01*
X464765Y1207696D01*
X452069D02*
X449530Y1210235D01*
X444451D01*
X441912Y1207696D01*
Y1197539D01*
X444451Y1195000D01*
X449530D01*
X452069Y1197539D01*
Y1207696D01*
X1077500Y350000D02*
X1062265D01*
Y342383D01*
X1064804Y339843D01*
X1069883D01*
X1072422Y342383D01*
Y350000D01*
Y344922D02*
X1077500Y339843D01*
X1074961Y334765D02*
X1077500Y332226D01*
Y327147D01*
X1074961Y324608D01*
X1064804D01*
X1062265Y327147D01*
Y332226D01*
X1064804Y334765D01*
X1067343D01*
X1069883Y332226D01*
Y324608D01*
X1052500Y350000D02*
X1037265D01*
Y342383D01*
X1039804Y339843D01*
X1044883D01*
X1047422Y342383D01*
Y350000D01*
Y344922D02*
X1052500Y339843D01*
X1039804Y334765D02*
X1037265Y332226D01*
Y327147D01*
X1039804Y324608D01*
X1042343D01*
X1044883Y327147D01*
X1047422Y324608D01*
X1049961D01*
X1052500Y327147D01*
Y332226D01*
X1049961Y334765D01*
X1047422D01*
X1044883Y332226D01*
X1042343Y334765D01*
X1039804D01*
X1044883Y332226D02*
Y327147D01*
X1005000Y547500D02*
Y562735D01*
X997383D01*
X994843Y560196D01*
Y555118D01*
X997383Y552578D01*
X1005000D01*
X999922D02*
X994843Y547500D01*
X989765Y562735D02*
X979608D01*
Y560196D01*
X989765Y550039D01*
Y547500D01*
X1005000Y522500D02*
Y537735D01*
X997383D01*
X994843Y535196D01*
Y530118D01*
X997383Y527578D01*
X1005000D01*
X999922D02*
X994843Y522500D01*
X979608Y537735D02*
X984687Y535196D01*
X989765Y530118D01*
Y525039D01*
X987226Y522500D01*
X982147D01*
X979608Y525039D01*
Y527578D01*
X982147Y530118D01*
X989765D01*
X980000Y667500D02*
Y682735D01*
X972383D01*
X969843Y680196D01*
Y675118D01*
X972383Y672578D01*
X980000D01*
X974922D02*
X969843Y667500D01*
X957147D02*
Y682735D01*
X964765Y675118D01*
X954608D01*
X1030000Y690000D02*
Y705235D01*
X1022383D01*
X1019843Y702696D01*
Y697618D01*
X1022383Y695078D01*
X1030000D01*
X1024922D02*
X1019843Y690000D01*
X1014765Y702696D02*
X1012226Y705235D01*
X1007147D01*
X1004608Y702696D01*
Y700157D01*
X1007147Y697618D01*
X1009687D01*
X1007147D01*
X1004608Y695078D01*
Y692539D01*
X1007147Y690000D01*
X1012226D01*
X1014765Y692539D01*
X1029000Y889000D02*
Y904235D01*
X1021383D01*
X1018843Y901696D01*
Y896618D01*
X1021383Y894078D01*
X1029000D01*
X1023922D02*
X1018843Y889000D01*
X1013765D02*
X1008687D01*
X1011226D01*
Y904235D01*
X1013765Y901696D01*
X447843Y1332539D02*
Y1342696D01*
X450382Y1345235D01*
X455461D01*
X458000Y1342696D01*
Y1332539D01*
X455461Y1330000D01*
X450382D01*
X452922Y1335078D02*
X447843Y1330000D01*
X450382D02*
X447843Y1332539D01*
X442765Y1330000D02*
X437687D01*
X440226D01*
Y1345235D01*
X442765Y1342696D01*
X500000Y1275000D02*
Y1290235D01*
X492383D01*
X489843Y1287696D01*
Y1282617D01*
X492383Y1280078D01*
X500000D01*
X482226Y1275000D02*
X477147D01*
X474608Y1277539D01*
Y1282617D01*
X477147Y1285157D01*
X482226D01*
X484765Y1282617D01*
Y1277539D01*
X482226Y1275000D01*
X466991Y1287696D02*
Y1285157D01*
X469530D01*
X464451D01*
X466991D01*
Y1277539D01*
X464451Y1275000D01*
X449216D02*
Y1290235D01*
X456834Y1282617D01*
X446677D01*
X1049843Y1105235D02*
X1054922D01*
X1052383D01*
Y1092539D01*
X1054922Y1090000D01*
X1057461D01*
X1060000Y1092539D01*
X1044765D02*
X1042226Y1090000D01*
X1037147D01*
X1034608Y1092539D01*
Y1102696D01*
X1037147Y1105235D01*
X1042226D01*
X1044765Y1102696D01*
Y1100157D01*
X1042226Y1097618D01*
X1034608D01*
X1049843Y1225235D02*
X1054922D01*
X1052383D01*
Y1212539D01*
X1054922Y1210000D01*
X1057461D01*
X1060000Y1212539D01*
X1044765Y1222696D02*
X1042226Y1225235D01*
X1037147D01*
X1034608Y1222696D01*
Y1220157D01*
X1037147Y1217618D01*
X1034608Y1215078D01*
Y1212539D01*
X1037147Y1210000D01*
X1042226D01*
X1044765Y1212539D01*
Y1215078D01*
X1042226Y1217618D01*
X1044765Y1220157D01*
Y1222696D01*
X1042226Y1217618D02*
X1037147D01*
X1079843Y425235D02*
X1084922D01*
X1082383D01*
Y412539D01*
X1084922Y410000D01*
X1087461D01*
X1090000Y412539D01*
X1074765Y425235D02*
X1064608D01*
Y422696D01*
X1074765Y412539D01*
Y410000D01*
X1049843Y665235D02*
X1054922D01*
X1052383D01*
Y652539D01*
X1054922Y650000D01*
X1057461D01*
X1060000Y652539D01*
X1034608Y665235D02*
X1039687Y662696D01*
X1044765Y657618D01*
Y652539D01*
X1042226Y650000D01*
X1037147D01*
X1034608Y652539D01*
Y655078D01*
X1037147Y657618D01*
X1044765D01*
X1049843Y785235D02*
X1054922D01*
X1052383D01*
Y772539D01*
X1054922Y770000D01*
X1057461D01*
X1060000Y772539D01*
X1034608Y785235D02*
X1044765D01*
Y777618D01*
X1039687Y780157D01*
X1037147D01*
X1034608Y777618D01*
Y772539D01*
X1037147Y770000D01*
X1042226D01*
X1044765Y772539D01*
X1049843Y1345235D02*
X1054922D01*
X1052383D01*
Y1332539D01*
X1054922Y1330000D01*
X1057461D01*
X1060000Y1332539D01*
X1037147Y1330000D02*
Y1345235D01*
X1044765Y1337618D01*
X1034608D01*
X1049843Y985235D02*
X1054922D01*
X1052383D01*
Y972539D01*
X1054922Y970000D01*
X1057461D01*
X1060000Y972539D01*
X1044765Y982696D02*
X1042226Y985235D01*
X1037147D01*
X1034608Y982696D01*
Y980157D01*
X1037147Y977618D01*
X1039687D01*
X1037147D01*
X1034608Y975078D01*
Y972539D01*
X1037147Y970000D01*
X1042226D01*
X1044765Y972539D01*
X338843Y630235D02*
X343922D01*
X341382D01*
Y617539D01*
X343922Y615000D01*
X346461D01*
X349000Y617539D01*
X323608Y615000D02*
X333765D01*
X323608Y625157D01*
Y627696D01*
X326147Y630235D01*
X331226D01*
X333765Y627696D01*
X333843Y752235D02*
X338922D01*
X336382D01*
Y739539D01*
X338922Y737000D01*
X341461D01*
X344000Y739539D01*
X328765Y737000D02*
X323687D01*
X326226D01*
Y752235D01*
X328765Y749696D01*
X268843Y1005235D02*
X279000D01*
Y997617D01*
X273922D01*
X279000D01*
Y990000D01*
X263765Y1005235D02*
Y990000D01*
X256147D01*
X253608Y992539D01*
Y995078D01*
X256147Y997617D01*
X263765D01*
X256147D01*
X253608Y1000157D01*
Y1002696D01*
X256147Y1005235D01*
X263765D01*
X240912Y990000D02*
Y1005235D01*
X248530Y997617D01*
X238373D01*
X394843Y1238235D02*
X405000D01*
Y1230618D01*
X399922D01*
X405000D01*
Y1223000D01*
X389765Y1238235D02*
Y1223000D01*
X382147D01*
X379608Y1225539D01*
Y1228078D01*
X382147Y1230618D01*
X389765D01*
X382147D01*
X379608Y1233157D01*
Y1235696D01*
X382147Y1238235D01*
X389765D01*
X374530Y1235696D02*
X371991Y1238235D01*
X366912D01*
X364373Y1235696D01*
Y1233157D01*
X366912Y1230618D01*
X369451D01*
X366912D01*
X364373Y1228078D01*
Y1225539D01*
X366912Y1223000D01*
X371991D01*
X374530Y1225539D01*
X394843Y1330235D02*
X405000D01*
Y1322617D01*
X399922D01*
X405000D01*
Y1315000D01*
X389765Y1330235D02*
Y1315000D01*
X382147D01*
X379608Y1317539D01*
Y1320078D01*
X382147Y1322617D01*
X389765D01*
X382147D01*
X379608Y1325157D01*
Y1327696D01*
X382147Y1330235D01*
X389765D01*
X364373Y1315000D02*
X374530D01*
X364373Y1325157D01*
Y1327696D01*
X366912Y1330235D01*
X371991D01*
X374530Y1327696D01*
X277173Y345753D02*
X287330D01*
Y338135D01*
X282252D01*
X287330D01*
Y330518D01*
X272095Y345753D02*
Y330518D01*
X264477D01*
X261938Y333057D01*
Y335596D01*
X264477Y338135D01*
X272095D01*
X264477D01*
X261938Y340675D01*
Y343214D01*
X264477Y345753D01*
X272095D01*
X256860Y330518D02*
X251782D01*
X254321D01*
Y345753D01*
X256860Y343214D01*
X230696Y1010157D02*
X233235Y1007617D01*
Y1002539D01*
X230696Y1000000D01*
X220539D01*
X218000Y1002539D01*
Y1007617D01*
X220539Y1010157D01*
X230696Y1015235D02*
X233235Y1017774D01*
Y1022853D01*
X230696Y1025392D01*
X228157D01*
X225618Y1022853D01*
Y1020313D01*
Y1022853D01*
X223078Y1025392D01*
X220539D01*
X218000Y1022853D01*
Y1017774D01*
X220539Y1015235D01*
X344429Y1355332D02*
X346968Y1357871D01*
X352047D01*
X354586Y1355332D01*
Y1345175D01*
X352047Y1342636D01*
X346968D01*
X344429Y1345175D01*
X329194Y1342636D02*
X339351D01*
X329194Y1352793D01*
Y1355332D01*
X331733Y1357871D01*
X336812D01*
X339351Y1355332D01*
X327721Y338294D02*
X330261Y340833D01*
X335339D01*
X337878Y338294D01*
Y328137D01*
X335339Y325598D01*
X330261D01*
X327721Y328137D01*
X322643Y325598D02*
X317565D01*
X320104D01*
Y340833D01*
X322643Y338294D01*
X1042343Y1310196D02*
X1044883Y1312735D01*
X1049961D01*
X1052500Y1310196D01*
Y1300039D01*
X1049961Y1297500D01*
X1044883D01*
X1042343Y1300039D01*
X1037265Y1297500D02*
Y1312735D01*
X1027108Y1297500D01*
Y1312735D01*
X1011873D02*
X1022030D01*
Y1305118D01*
X1016952Y1307657D01*
X1014412D01*
X1011873Y1305118D01*
Y1300039D01*
X1014412Y1297500D01*
X1019491D01*
X1022030Y1300039D01*
X1006795Y1297500D02*
Y1300039D01*
X1004256D01*
Y1297500D01*
X1006795D01*
X994099D02*
X989021D01*
X991560D01*
Y1312735D01*
X994099Y1310196D01*
X1042343Y1190196D02*
X1044883Y1192735D01*
X1049961D01*
X1052500Y1190196D01*
Y1180039D01*
X1049961Y1177500D01*
X1044883D01*
X1042343Y1180039D01*
X1037265Y1177500D02*
Y1192735D01*
X1027108Y1177500D01*
Y1192735D01*
X1011873D02*
X1022030D01*
Y1185118D01*
X1016952Y1187657D01*
X1014412D01*
X1011873Y1185118D01*
Y1180039D01*
X1014412Y1177500D01*
X1019491D01*
X1022030Y1180039D01*
X1006795Y1177500D02*
Y1180039D01*
X1004256D01*
Y1177500D01*
X1006795D01*
X994099Y1190196D02*
X991560Y1192735D01*
X986481D01*
X983942Y1190196D01*
Y1187657D01*
X986481Y1185118D01*
X989021D01*
X986481D01*
X983942Y1182578D01*
Y1180039D01*
X986481Y1177500D01*
X991560D01*
X994099Y1180039D01*
X1042343Y1140196D02*
X1044883Y1142735D01*
X1049961D01*
X1052500Y1140196D01*
Y1130039D01*
X1049961Y1127500D01*
X1044883D01*
X1042343Y1130039D01*
X1037265Y1127500D02*
Y1142735D01*
X1027108Y1127500D01*
Y1142735D01*
X1011873D02*
X1022030D01*
Y1135118D01*
X1016952Y1137657D01*
X1014412D01*
X1011873Y1135118D01*
Y1130039D01*
X1014412Y1127500D01*
X1019491D01*
X1022030Y1130039D01*
X1006795Y1127500D02*
Y1130039D01*
X1004256D01*
Y1127500D01*
X1006795D01*
X986481D02*
Y1142735D01*
X994099Y1135118D01*
X983942D01*
X1042343Y1070196D02*
X1044883Y1072735D01*
X1049961D01*
X1052500Y1070196D01*
Y1060039D01*
X1049961Y1057500D01*
X1044883D01*
X1042343Y1060039D01*
X1037265Y1057500D02*
Y1072735D01*
X1027108Y1057500D01*
Y1072735D01*
X1011873D02*
X1022030D01*
Y1065118D01*
X1016952Y1067657D01*
X1014412D01*
X1011873Y1065118D01*
Y1060039D01*
X1014412Y1057500D01*
X1019491D01*
X1022030Y1060039D01*
X1006795Y1057500D02*
Y1060039D01*
X1004256D01*
Y1057500D01*
X1006795D01*
X983942Y1072735D02*
X994099D01*
Y1065118D01*
X989021Y1067657D01*
X986481D01*
X983942Y1065118D01*
Y1060039D01*
X986481Y1057500D01*
X991560D01*
X994099Y1060039D01*
X1042343Y1020196D02*
X1044883Y1022735D01*
X1049961D01*
X1052500Y1020196D01*
Y1010039D01*
X1049961Y1007500D01*
X1044883D01*
X1042343Y1010039D01*
X1037265Y1007500D02*
Y1022735D01*
X1027108Y1007500D01*
Y1022735D01*
X1011873D02*
X1022030D01*
Y1015118D01*
X1016952Y1017657D01*
X1014412D01*
X1011873Y1015118D01*
Y1010039D01*
X1014412Y1007500D01*
X1019491D01*
X1022030Y1010039D01*
X1006795Y1007500D02*
Y1010039D01*
X1004256D01*
Y1007500D01*
X1006795D01*
X983942Y1022735D02*
X989021Y1020196D01*
X994099Y1015118D01*
Y1010039D01*
X991560Y1007500D01*
X986481D01*
X983942Y1010039D01*
Y1012578D01*
X986481Y1015118D01*
X994099D01*
X1042343Y950196D02*
X1044883Y952735D01*
X1049961D01*
X1052500Y950196D01*
Y940039D01*
X1049961Y937500D01*
X1044883D01*
X1042343Y940039D01*
X1037265Y937500D02*
Y952735D01*
X1027108Y937500D01*
Y952735D01*
X1011873D02*
X1022030D01*
Y945118D01*
X1016952Y947657D01*
X1014412D01*
X1011873Y945118D01*
Y940039D01*
X1014412Y937500D01*
X1019491D01*
X1022030Y940039D01*
X1006795Y937500D02*
Y940039D01*
X1004256D01*
Y937500D01*
X1006795D01*
X994099Y952735D02*
X983942D01*
Y950196D01*
X994099Y940039D01*
Y937500D01*
X1042343Y750196D02*
X1044883Y752735D01*
X1049961D01*
X1052500Y750196D01*
Y740039D01*
X1049961Y737500D01*
X1044883D01*
X1042343Y740039D01*
X1037265Y737500D02*
Y752735D01*
X1027108Y737500D01*
Y752735D01*
X1011873D02*
X1022030D01*
Y745118D01*
X1016952Y747657D01*
X1014412D01*
X1011873Y745118D01*
Y740039D01*
X1014412Y737500D01*
X1019491D01*
X1022030Y740039D01*
X1006795Y737500D02*
Y740039D01*
X1004256D01*
Y737500D01*
X1006795D01*
X994099Y740039D02*
X991560Y737500D01*
X986481D01*
X983942Y740039D01*
Y750196D01*
X986481Y752735D01*
X991560D01*
X994099Y750196D01*
Y747657D01*
X991560Y745118D01*
X983942D01*
X1042343Y630196D02*
X1044883Y632735D01*
X1049961D01*
X1052500Y630196D01*
Y620039D01*
X1049961Y617500D01*
X1044883D01*
X1042343Y620039D01*
X1037265Y617500D02*
Y632735D01*
X1027108Y617500D01*
Y632735D01*
X1011873D02*
X1022030D01*
Y625118D01*
X1016952Y627657D01*
X1014412D01*
X1011873Y625118D01*
Y620039D01*
X1014412Y617500D01*
X1019491D01*
X1022030Y620039D01*
X1006795Y617500D02*
Y620039D01*
X1004256D01*
Y617500D01*
X1006795D01*
X994099D02*
X989021D01*
X991560D01*
Y632735D01*
X994099Y630196D01*
X981403D02*
X978864Y632735D01*
X973785D01*
X971246Y630196D01*
Y627657D01*
X973785Y625118D01*
X976325D01*
X973785D01*
X971246Y622578D01*
Y620039D01*
X973785Y617500D01*
X978864D01*
X981403Y620039D01*
X1042343Y580196D02*
X1044883Y582735D01*
X1049961D01*
X1052500Y580196D01*
Y570039D01*
X1049961Y567500D01*
X1044883D01*
X1042343Y570039D01*
X1037265Y567500D02*
Y582735D01*
X1027108Y567500D01*
Y582735D01*
X1011873D02*
X1022030D01*
Y575118D01*
X1016952Y577657D01*
X1014412D01*
X1011873Y575118D01*
Y570039D01*
X1014412Y567500D01*
X1019491D01*
X1022030Y570039D01*
X1006795Y567500D02*
Y570039D01*
X1004256D01*
Y567500D01*
X1006795D01*
X994099D02*
X989021D01*
X991560D01*
Y582735D01*
X994099Y580196D01*
X973785Y567500D02*
Y582735D01*
X981403Y575118D01*
X971246D01*
X1042343Y510196D02*
X1044883Y512735D01*
X1049961D01*
X1052500Y510196D01*
Y500039D01*
X1049961Y497500D01*
X1044883D01*
X1042343Y500039D01*
X1037265Y497500D02*
Y512735D01*
X1027108Y497500D01*
Y512735D01*
X1011873D02*
X1022030D01*
Y505118D01*
X1016952Y507657D01*
X1014412D01*
X1011873Y505118D01*
Y500039D01*
X1014412Y497500D01*
X1019491D01*
X1022030Y500039D01*
X1006795Y497500D02*
Y500039D01*
X1004256D01*
Y497500D01*
X1006795D01*
X994099D02*
X989021D01*
X991560D01*
Y512735D01*
X994099Y510196D01*
X971246Y512735D02*
X981403D01*
Y505118D01*
X976325Y507657D01*
X973785D01*
X971246Y505118D01*
Y500039D01*
X973785Y497500D01*
X978864D01*
X981403Y500039D01*
X1042343Y460196D02*
X1044883Y462735D01*
X1049961D01*
X1052500Y460196D01*
Y450039D01*
X1049961Y447500D01*
X1044883D01*
X1042343Y450039D01*
X1037265Y447500D02*
Y462735D01*
X1027108Y447500D01*
Y462735D01*
X1011873D02*
X1022030D01*
Y455118D01*
X1016952Y457657D01*
X1014412D01*
X1011873Y455118D01*
Y450039D01*
X1014412Y447500D01*
X1019491D01*
X1022030Y450039D01*
X1006795Y447500D02*
Y450039D01*
X1004256D01*
Y447500D01*
X1006795D01*
X994099D02*
X989021D01*
X991560D01*
Y462735D01*
X994099Y460196D01*
X971246Y462735D02*
X976325Y460196D01*
X981403Y455118D01*
Y450039D01*
X978864Y447500D01*
X973785D01*
X971246Y450039D01*
Y452578D01*
X973785Y455118D01*
X981403D01*
X210000Y1085000D02*
X220157D01*
X225235Y1090078D01*
X220157Y1095157D01*
X210000D01*
X217617D01*
Y1085000D01*
X222696Y1100235D02*
X225235Y1102774D01*
Y1107853D01*
X222696Y1110392D01*
X212539D01*
X210000Y1107853D01*
Y1102774D01*
X212539Y1100235D01*
X222696D01*
X217617Y1115470D02*
Y1125627D01*
X210000Y1130705D02*
X220157D01*
X225235Y1135784D01*
X220157Y1140862D01*
X210000D01*
X217617D01*
Y1130705D01*
X210000Y1145940D02*
Y1151019D01*
Y1148480D01*
X225235D01*
X222696Y1145940D01*
X217617Y1158636D02*
Y1168793D01*
X210000Y1173871D02*
X220157D01*
X225235Y1178950D01*
X220157Y1184028D01*
X210000D01*
X217617D01*
Y1173871D01*
X210000Y1199263D02*
Y1189106D01*
X220157Y1199263D01*
X222696D01*
X225235Y1196724D01*
Y1191646D01*
X222696Y1189106D01*
X392343Y730196D02*
X394883Y732735D01*
X399961D01*
X402500Y730196D01*
Y720039D01*
X399961Y717500D01*
X394883D01*
X392343Y720039D01*
Y725117D01*
X397422D01*
X387265Y717500D02*
Y732735D01*
X377108Y717500D01*
Y732735D01*
X372030D02*
Y717500D01*
X364412D01*
X361873Y720039D01*
Y730196D01*
X364412Y732735D01*
X372030D01*
X392343Y610196D02*
X394883Y612735D01*
X399961D01*
X402500Y610196D01*
Y600039D01*
X399961Y597500D01*
X394883D01*
X392343Y600039D01*
Y605117D01*
X397422D01*
X387265Y597500D02*
Y612735D01*
X377108Y597500D01*
Y612735D01*
X372030D02*
Y597500D01*
X364412D01*
X361873Y600039D01*
Y610196D01*
X364412Y612735D01*
X372030D01*
X1042343Y1260196D02*
X1044883Y1262735D01*
X1049961D01*
X1052500Y1260196D01*
Y1250039D01*
X1049961Y1247500D01*
X1044883D01*
X1042343Y1250039D01*
X1037265Y1247500D02*
Y1262735D01*
X1027108Y1247500D01*
Y1262735D01*
X1011873D02*
X1022030D01*
Y1255118D01*
X1016952Y1257657D01*
X1014412D01*
X1011873Y1255118D01*
Y1250039D01*
X1014412Y1247500D01*
X1019491D01*
X1022030Y1250039D01*
X1006795Y1247500D02*
Y1250039D01*
X1004256D01*
Y1247500D01*
X1006795D01*
X983942D02*
X994099D01*
X983942Y1257657D01*
Y1260196D01*
X986481Y1262735D01*
X991560D01*
X994099Y1260196D01*
X200000Y1400000D02*
X1180000D01*
Y400000D02*
X1380000D01*
X200000D02*
Y1400000D01*
X0Y400000D02*
X200000D01*
X0Y0D02*
Y400000D01*
Y-0D02*
X1380000D01*
X1180000Y400000D02*
Y1400000D01*
X1380000Y0D02*
Y400000D01*
D18*
X357500Y1100000D02*
X367500D01*
X362500Y1095000D02*
Y1105000D01*
D37*
X318800Y1161650D02*
G03*
X318800Y1161650I-1250J0D01*
G01*
X401750Y1250500D02*
G03*
X401750Y1250500I-1250J0D01*
G01*
D38*
X1086110Y355990D02*
X1103890D01*
X1086110D02*
Y389010D01*
X1103890D01*
Y355990D02*
Y389010D01*
X1111110D02*
X1128890D01*
Y355990D02*
Y389010D01*
X1111110Y355990D02*
X1128890D01*
X1111110D02*
Y389010D01*
X1061110Y355990D02*
X1078890D01*
X1061110D02*
Y389010D01*
X1078890D01*
Y355990D02*
Y389010D01*
X1036110D02*
X1053890D01*
Y355990D02*
Y389010D01*
X1036110Y355990D02*
X1053890D01*
X1036110D02*
Y389010D01*
X1010990Y546110D02*
Y563890D01*
X1044010D01*
Y546110D02*
Y563890D01*
X1010990Y546110D02*
X1044010D01*
Y521110D02*
Y538890D01*
X1010990Y521110D02*
X1044010D01*
X1010990D02*
Y538890D01*
X1044010D01*
X986110Y684010D02*
X1003890D01*
Y650990D02*
Y684010D01*
X986110Y650990D02*
X1003890D01*
X986110D02*
Y684010D01*
X1011110Y650990D02*
X1028890D01*
X1011110D02*
Y684010D01*
X1028890D01*
Y650990D02*
Y684010D01*
X1038110Y879490D02*
X1055890D01*
X1038110D02*
Y912510D01*
X1055890D01*
Y879490D02*
Y912510D01*
X469000Y1306500D02*
X476000D01*
X233060Y294030D02*
Y321970D01*
X288940D01*
X233060Y294030D02*
X288940D01*
Y321970D01*
X356010Y1316110D02*
Y1333890D01*
X322990Y1316110D02*
X356010D01*
X322990Y1333890D02*
X356010D01*
X322990Y1316110D02*
Y1333890D01*
X306490Y299110D02*
Y316890D01*
X339510D01*
X306490Y299110D02*
X339510D01*
Y316890D01*
X377940Y1243530D02*
Y1271470D01*
X322060Y1243530D02*
X377940D01*
X322060Y1271470D02*
X377940D01*
X322060Y1243530D02*
Y1271470D01*
X377940Y1281030D02*
Y1308970D01*
X322060Y1281030D02*
X377940D01*
X322060Y1308970D02*
X377940D01*
X322060Y1281030D02*
Y1308970D01*
X263530Y1009560D02*
X291470D01*
X263530D02*
Y1065440D01*
X291470Y1009560D02*
Y1065440D01*
X263530D02*
X291470D01*
X228110Y1030490D02*
X245890D01*
X228110D02*
Y1063510D01*
X245890Y1030490D02*
Y1063510D01*
X228110D02*
X245890D01*
X305990Y988610D02*
Y1006390D01*
X339010D01*
Y988610D02*
Y1006390D01*
X305990Y988610D02*
X339010D01*
X389010D02*
Y1006390D01*
X355990Y988610D02*
X389010D01*
X355990D02*
Y1006390D01*
X389010D01*
X321110Y943490D02*
X338890D01*
X321110D02*
Y976510D01*
X338890D01*
Y943490D02*
Y976510D01*
X356110Y943490D02*
X373890D01*
X356110D02*
Y976510D01*
X373890D01*
Y943490D02*
Y976510D01*
X301510Y1181110D02*
Y1198890D01*
X268490Y1181110D02*
X301510D01*
X268490D02*
Y1198890D01*
X301510D01*
Y1136110D02*
Y1153890D01*
X268490Y1136110D02*
X301510D01*
X268490D02*
Y1153890D01*
X301510D01*
Y1091110D02*
Y1108890D01*
X268490Y1091110D02*
X301510D01*
X268490D02*
Y1108890D01*
X301510D01*
X261510Y1091110D02*
Y1108890D01*
X228490Y1091110D02*
X261510D01*
X228490D02*
Y1108890D01*
X261510D01*
Y1181110D02*
Y1198890D01*
X228490Y1181110D02*
X261510D01*
X228490D02*
Y1198890D01*
X261510D01*
Y1136110D02*
Y1153890D01*
X228490Y1136110D02*
X261510D01*
X228490D02*
Y1153890D01*
X261510D01*
X436110Y1158490D02*
X453890D01*
X436110D02*
Y1191510D01*
X453890D01*
Y1158490D02*
Y1191510D01*
D39*
X415000Y1071750D02*
Y1128250D01*
X310000Y1071750D02*
Y1128250D01*
X493000Y1306500D02*
X500000D01*
Y1316000D01*
X469000Y1306500D02*
Y1316000D01*
X397736Y1268500D02*
Y1276500D01*
X434000Y1283750D02*
Y1289500D01*
X411500D02*
X434000D01*
X411750Y1255500D02*
X434000D01*
Y1261250D01*
D57*
X937751Y343205D02*
X952986Y358440D01*
X823492Y343205D02*
X937751D01*
X798101Y317814D02*
X823492Y343205D01*
X470768Y317814D02*
X798101D01*
X445377Y343205D02*
X470768Y317814D01*
X429931Y343205D02*
X445377D01*
X427392Y343628D02*
X429931Y343205D01*
X425064Y344474D02*
X427392Y343628D01*
X422948Y346167D02*
X425064Y344474D01*
X421256Y348283D02*
X422948Y346167D01*
X420409Y350611D02*
X421256Y348283D01*
X419986Y353150D02*
X420409Y350611D01*
X419986Y353150D02*
Y993215D01*
X420409Y995754D01*
X421256Y998082D01*
X422948Y1000198D01*
X425064Y1001890D01*
X427392Y1002737D01*
X429931Y1003160D01*
X942830D01*
X945580Y1002737D01*
X947908Y1001890D01*
X950024Y1000198D01*
X951505Y998082D01*
X952563Y995754D01*
X952986Y993215D01*
Y358440D02*
Y993215D01*
M02*
