M48
;Layer_Color=9474304
;FILE_FORMAT=4:4
METRIC,LZ
;TYPE=PLATED
T1F00S00C0.6350
T2F00S00C0.7112
T3F00S00C1.0000
T4F00S00C1.0160
T5F00S00C1.2000
T6F00S00C1.4000
;TYPE=NON_PLATED
T7F00S00C3.3000
%
T01
X002546Y0036538
X0028
X003054
X003308
Y005
X003054
X0028
X002546
T02
X00425Y00408
Y0043
X01002Y00364
X0107Y004
X0104Y0023
X010525Y00605
X0095Y006
Y0058
X009715Y00694
X00858Y00663
X0082Y00625
X01041Y00927
X00358Y00834
X0033Y00815
X00292Y009975
X002525Y011225
X002375Y012375
X00332Y01228
X00355Y01205
X004011Y013039
X00485Y0135
X00445Y01145
X0082299Y01305
X0085899
T03
X001646Y0026835
X0019
X002154
X006646
X0069
X007154
X011646
X0119
X012154
X004454Y0072376
X003Y008924
Y009178
Y009432
Y009686
Y01248
Y012734
Y012988
Y013242
X003762Y01375
X004016
X00427
X004524
X004778
X005032
X005286
X00554
X005794
X006048
X006302
X006556
X00681
X003508
X003254
X003
T04
X0089Y0009
X0095
Y0017
X0089
X0015Y0033
X00389Y0033
X0039Y0039
X004454Y0039356
Y0036816
Y0041896
Y0044436
Y0046976
Y0049516
Y0054596
Y0057136
X005Y0029
X0065Y0033
X0071Y00385
Y00485
X00928Y0049516
Y0052056
Y0054596
Y0046976
Y0044436
Y0041896
Y0039356
Y0036816
X0095Y00305
X01
X0095Y0025
X0089
X0086Y00305
X0119Y00332
X0125Y003
X00928Y005866
Y00612
Y006374
Y006628
Y006882
Y007136
Y00739
Y007644
Y007898
Y008152
X01005Y00778
X00388Y007794
Y00754
X004454Y0069836
Y0067296
Y0064756
Y0062216
Y0059676
X0065Y0115
Y0119
Y0123
X0069Y0125
Y0121
Y0117
X0092
Y0121
Y0125
X0096Y0123
Y0119
Y0115
T05
X013043Y0007965
X010757
X008043
X005757
X003043
X000757
Y0023165
X0008Y0033
X003043Y0023165
X005757
X008043
X010757
X013043
X013Y003
T06
X0026Y00555
X0112Y00575
Y00505
Y00455
Y00625
Y00695
Y00745
Y00895
Y00945
X0026Y00725
Y00675
Y00605
X0112Y01015
Y01065
Y01135
Y01185
Y01255
Y01305
T07
X01355Y00025
X00025
Y00375
X004962Y0034276
X007756
X01355Y00375
X01155Y00825
X00928Y0085076
X004454Y0086346
X00225Y00825
X01155Y01375
X00225
M30
