G04 Layer_Color=8421504*
%FSLAX44Y44*%
%MOMM*%
G71*
G01*
G75*
%ADD10R,1.6000X2.5000*%
%ADD11R,1.6000X2.4000*%
%ADD12O,1.6500X0.6500*%
%ADD13R,0.9000X1.0000*%
%ADD14R,3.0000X6.0000*%
%ADD15R,0.8000X0.8000*%
%ADD17C,0.2540*%
%ADD18C,0.1000*%
D10*
X858990Y1332540D02*
D03*
Y1367540D02*
D03*
D11*
X822990Y1332540D02*
D03*
Y1367540D02*
D03*
D12*
X826250Y1168550D02*
D03*
Y1181250D02*
D03*
Y1193950D02*
D03*
Y1206650D02*
D03*
Y1219350D02*
D03*
Y1232050D02*
D03*
Y1244750D02*
D03*
Y1257450D02*
D03*
X769750Y1168550D02*
D03*
Y1181250D02*
D03*
Y1193950D02*
D03*
Y1206650D02*
D03*
Y1219350D02*
D03*
Y1232050D02*
D03*
Y1244750D02*
D03*
Y1257450D02*
D03*
D13*
X355000Y622000D02*
D03*
X371000D02*
D03*
X987500Y735000D02*
D03*
X971500D02*
D03*
D14*
X639000Y612000D02*
D03*
X759000D02*
D03*
D15*
X987500Y712500D02*
D03*
X971500D02*
D03*
X355000Y583000D02*
D03*
X371000D02*
D03*
D17*
X200000Y1400000D02*
X1180000D01*
Y400000D02*
X1380000D01*
X200000D02*
Y1400000D01*
X0Y400000D02*
X200000D01*
X0Y0D02*
Y400000D01*
Y-0D02*
X1380000D01*
X1180000Y400000D02*
Y1400000D01*
X1380000Y0D02*
Y400000D01*
D18*
X357500Y1100000D02*
X367500D01*
X362500Y1095000D02*
Y1105000D01*
M02*
