G04 Layer_Color=16711935*
%FSLAX44Y44*%
%MOMM*%
G71*
G01*
G75*
%ADD10R,1.6000X2.5000*%
%ADD11R,1.6000X2.4000*%
%ADD17C,0.2540*%
%ADD18C,0.1000*%
%ADD28R,0.8000X2.4000*%
%ADD29R,0.7000X2.4000*%
%ADD32R,2.4000X1.6000*%
%ADD33R,2.5000X1.6000*%
%ADD41R,1.1000X1.2000*%
%ADD44C,3.5000*%
%ADD45C,2.2320*%
%ADD46R,1.7000X3.2000*%
%ADD47O,1.7000X3.2000*%
%ADD48C,2.7400*%
%ADD49R,2.2320X2.2320*%
%ADD50R,2.8000X2.8000*%
%ADD51C,2.8000*%
%ADD52C,1.4700*%
%ADD53R,1.2000X1.1000*%
%ADD54R,0.8000X1.3000*%
G04:AMPARAMS|DCode=55|XSize=1.8mm|YSize=1.8mm|CornerRadius=0.5mm|HoleSize=0mm|Usage=FLASHONLY|Rotation=90.000|XOffset=0mm|YOffset=0mm|HoleType=Round|Shape=RoundedRectangle|*
%AMROUNDEDRECTD55*
21,1,1.8000,0.8000,0,0,90.0*
21,1,0.8000,1.8000,0,0,90.0*
1,1,1.0000,0.4000,0.4000*
1,1,1.0000,0.4000,-0.4000*
1,1,1.0000,-0.4000,-0.4000*
1,1,1.0000,-0.4000,0.4000*
%
%ADD55ROUNDEDRECTD55*%
G04:AMPARAMS|DCode=56|XSize=1.3mm|YSize=1.8mm|CornerRadius=0.375mm|HoleSize=0mm|Usage=FLASHONLY|Rotation=90.000|XOffset=0mm|YOffset=0mm|HoleType=Round|Shape=RoundedRectangle|*
%AMROUNDEDRECTD56*
21,1,1.3000,1.0500,0,0,90.0*
21,1,0.5500,1.8000,0,0,90.0*
1,1,0.7500,0.5250,0.2750*
1,1,0.7500,0.5250,-0.2750*
1,1,0.7500,-0.5250,-0.2750*
1,1,0.7500,-0.5250,0.2750*
%
%ADD56ROUNDEDRECTD56*%
D10*
X243000Y308000D02*
D03*
X368000Y1257500D02*
D03*
Y1295000D02*
D03*
D11*
X279000Y308000D02*
D03*
X332000Y1257500D02*
D03*
Y1295000D02*
D03*
D17*
X200000Y1400000D02*
X1180000D01*
Y400000D02*
X1380000D01*
X200000D02*
Y1400000D01*
X0Y400000D02*
X200000D01*
X0Y0D02*
Y400000D01*
Y-0D02*
X1380000D01*
X1180000Y400000D02*
Y1400000D01*
X1380000Y0D02*
Y400000D01*
D18*
X357500Y1100000D02*
X367500D01*
X362500Y1095000D02*
Y1105000D01*
D28*
X317550Y1056000D02*
D03*
X407450D02*
D03*
Y1144000D02*
D03*
X317550D02*
D03*
D29*
X330750Y1056000D02*
D03*
X343450D02*
D03*
X356150D02*
D03*
X368850D02*
D03*
X381550D02*
D03*
X394250D02*
D03*
Y1144000D02*
D03*
X381550D02*
D03*
X368850D02*
D03*
X356150D02*
D03*
X343450D02*
D03*
X330750D02*
D03*
D32*
X277500Y1055500D02*
D03*
D33*
Y1019500D02*
D03*
D41*
X347500Y1325000D02*
D03*
X331500D02*
D03*
X315000Y308000D02*
D03*
X331000D02*
D03*
X1019500Y530000D02*
D03*
X1035500D02*
D03*
X1035500Y555000D02*
D03*
X1019500D02*
D03*
X330500Y997500D02*
D03*
X314500D02*
D03*
X364500D02*
D03*
X380500D02*
D03*
X277000Y1190000D02*
D03*
X293000D02*
D03*
X277000Y1145000D02*
D03*
X293000D02*
D03*
X277000Y1100000D02*
D03*
X293000D02*
D03*
X237000D02*
D03*
X253000D02*
D03*
X237000Y1190000D02*
D03*
X253000D02*
D03*
X237000Y1145000D02*
D03*
X253000D02*
D03*
D44*
X225000Y825000D02*
D03*
Y1375000D02*
D03*
X1155000Y825000D02*
D03*
Y1375000D02*
D03*
X1355000Y25000D02*
D03*
X25000Y375000D02*
D03*
X1355000D02*
D03*
X25000Y25000D02*
D03*
X445400Y863460D02*
D03*
X928000Y850760D02*
D03*
X496200Y342760D02*
D03*
X775600D02*
D03*
D45*
X681000Y1375000D02*
D03*
X655600D02*
D03*
X630200D02*
D03*
X604800D02*
D03*
X579400D02*
D03*
X554000D02*
D03*
X528600D02*
D03*
X503200D02*
D03*
X477800D02*
D03*
X452400D02*
D03*
X427000D02*
D03*
X401600D02*
D03*
X376200D02*
D03*
X350800D02*
D03*
X325400D02*
D03*
X300000D02*
D03*
Y1324200D02*
D03*
Y1298800D02*
D03*
Y1273400D02*
D03*
Y1248000D02*
D03*
Y968600D02*
D03*
Y943200D02*
D03*
Y892400D02*
D03*
Y917800D02*
D03*
X1164600Y268350D02*
D03*
X1190000D02*
D03*
X1215400D02*
D03*
X1304300Y79650D02*
D03*
Y231650D02*
D03*
X1075700Y79650D02*
D03*
Y231650D02*
D03*
X164600Y268350D02*
D03*
X190000D02*
D03*
X215400D02*
D03*
X304300Y79650D02*
D03*
Y231650D02*
D03*
X75700Y79650D02*
D03*
Y231650D02*
D03*
X664600Y268350D02*
D03*
X690000D02*
D03*
X715400D02*
D03*
X804300Y79650D02*
D03*
Y231650D02*
D03*
X575700Y79650D02*
D03*
Y231650D02*
D03*
X388000Y754000D02*
D03*
X445400Y698360D02*
D03*
X928000Y815200D02*
D03*
Y789800D02*
D03*
X445400Y545960D02*
D03*
Y672960D02*
D03*
X928000Y739000D02*
D03*
X445400Y571360D02*
D03*
Y596760D02*
D03*
X928000Y713600D02*
D03*
Y688200D02*
D03*
Y662800D02*
D03*
Y637400D02*
D03*
Y612000D02*
D03*
Y545960D02*
D03*
Y520560D02*
D03*
Y495160D02*
D03*
Y469760D02*
D03*
Y444360D02*
D03*
Y418960D02*
D03*
Y393560D02*
D03*
Y764400D02*
D03*
X445400Y368160D02*
D03*
Y393560D02*
D03*
Y418960D02*
D03*
Y444360D02*
D03*
Y469760D02*
D03*
Y622160D02*
D03*
Y647560D02*
D03*
D46*
X254600Y365380D02*
D03*
D47*
X280000D02*
D03*
X305400D02*
D03*
X330800D02*
D03*
X254600Y500000D02*
D03*
X280000D02*
D03*
X305400D02*
D03*
X330800D02*
D03*
D48*
X1300000Y300000D02*
D03*
X1250000D02*
D03*
X80000Y330000D02*
D03*
X650000D02*
D03*
X150000D02*
D03*
X1190000Y332000D02*
D03*
X710000Y385000D02*
D03*
Y485000D02*
D03*
X690000Y1250000D02*
D03*
X650000Y1230000D02*
D03*
X690000Y1210000D02*
D03*
X650000Y1190000D02*
D03*
X690000Y1170000D02*
D03*
X650000Y1150000D02*
D03*
X920000Y1250000D02*
D03*
X960000Y1230000D02*
D03*
X920000Y1210000D02*
D03*
X960000Y1190000D02*
D03*
X920000Y1170000D02*
D03*
X960000Y1150000D02*
D03*
X1005000Y778000D02*
D03*
X389000Y330000D02*
D03*
X390000Y390000D02*
D03*
X890000Y250000D02*
D03*
Y170000D02*
D03*
Y90000D02*
D03*
X950000Y305000D02*
D03*
X1000000D02*
D03*
X950000Y250000D02*
D03*
Y170000D02*
D03*
Y90000D02*
D03*
X860000Y305000D02*
D03*
X500000Y290000D02*
D03*
D49*
X388000Y779400D02*
D03*
X445400Y723760D02*
D03*
X928000Y586600D02*
D03*
Y368160D02*
D03*
X445400Y495160D02*
D03*
D50*
X260000Y675000D02*
D03*
Y555000D02*
D03*
X1120000Y945000D02*
D03*
Y1305000D02*
D03*
Y745000D02*
D03*
Y625000D02*
D03*
Y505000D02*
D03*
Y1185000D02*
D03*
Y1065000D02*
D03*
D51*
X260000Y725000D02*
D03*
Y605000D02*
D03*
X1120000Y895000D02*
D03*
Y1255000D02*
D03*
Y695000D02*
D03*
Y575000D02*
D03*
Y455000D02*
D03*
Y1135000D02*
D03*
Y1015000D02*
D03*
D52*
X1041000Y927000D02*
D03*
X358000Y834000D02*
D03*
X425000Y430000D02*
D03*
Y408000D02*
D03*
X401100Y1303900D02*
D03*
X445000Y1145000D02*
D03*
X485000Y1350000D02*
D03*
X292000Y997500D02*
D03*
X332000Y1228000D02*
D03*
X330000Y815000D02*
D03*
X950000Y580000D02*
D03*
X252500Y1122500D02*
D03*
X1040000Y230000D02*
D03*
X1002000Y364000D02*
D03*
X950000Y600000D02*
D03*
X237500Y1237500D02*
D03*
X820000Y625000D02*
D03*
X1070000Y400000D02*
D03*
X1052500Y605000D02*
D03*
X971500Y694000D02*
D03*
X355000Y1205000D02*
D03*
X858000Y663000D02*
D03*
X822990Y1305000D02*
D03*
X858990D02*
D03*
D53*
X1120000Y364500D02*
D03*
Y380500D02*
D03*
X1095000Y380500D02*
D03*
Y364500D02*
D03*
X1070000Y380500D02*
D03*
Y364500D02*
D03*
X1045000Y364500D02*
D03*
Y380500D02*
D03*
X995000Y659500D02*
D03*
Y675500D02*
D03*
X1020000Y675500D02*
D03*
Y659500D02*
D03*
X1047000Y904000D02*
D03*
Y888000D02*
D03*
X237000Y1039000D02*
D03*
Y1055000D02*
D03*
X330000Y968000D02*
D03*
Y952000D02*
D03*
X365000Y968000D02*
D03*
Y952000D02*
D03*
X445000Y1183000D02*
D03*
Y1167000D02*
D03*
D54*
X484500Y1303000D02*
D03*
X494000Y1329000D02*
D03*
X475000D02*
D03*
D55*
X430000Y1272500D02*
D03*
D56*
X401000Y1261000D02*
D03*
X401100Y1284000D02*
D03*
M02*
